<svg xmlns="http://www.w3.org/2000/svg" xmlns:xlink="http://www.w3.org/1999/xlink" viewBox="0 0 3987.12 856.98"><defs><style>.cls-1{fill:none;}.cls-2{clip-path:url(#clip-path);}.cls-3{fill:url(#무제_그라디언트_75);}.cls-4,.cls-5{opacity:0.8;}.cls-5,.cls-6,.cls-7,.cls-8,.cls-9{isolation:isolate;}.cls-5{fill:url(#무제_그라디언트_2);}.cls-6,.cls-8,.cls-9{opacity:0.6;}.cls-6{fill:url(#무제_그라디언트_3);}.cls-7{opacity:0.4;fill:url(#무제_그라디언트_4);}.cls-8{fill:url(#무제_그라디언트_52);}.cls-9{fill:url(#무제_그라디언트_52-2);}</style><clipPath id="clip-path" transform="translate(494.4 128.97)"><rect class="cls-1" width="3066.54" height="727.48"/></clipPath><linearGradient id="무제_그라디언트_75" x1="-0.57" y1="-2296.44" x2="3066.54" y2="-2296.44" gradientTransform="matrix(1, 0, 0, -1, 0, -1932.7)" gradientUnits="userSpaceOnUse"><stop offset="0" stop-color="#a874f5"/><stop offset="0.21" stop-color="#6f85fa"/><stop offset="0.38" stop-color="#824cf5"/><stop offset="0.53" stop-color="#c370f1"/><stop offset="0.65" stop-color="#ff92ed"/><stop offset="0.75" stop-color="#ffaffc"/><stop offset="0.84" stop-color="#f8a8fa"/><stop offset="0.92" stop-color="#de8af3"/><stop offset="1" stop-color="#a672f7"/></linearGradient><linearGradient id="무제_그라디언트_2" x1="1127.2" y1="-2273.47" x2="1982.73" y2="-2155.48" gradientTransform="matrix(1, 0, 0, -1, 0, -1932.7)" gradientUnits="userSpaceOnUse"><stop offset="0" stop-color="#8b63ff"/><stop offset="0.19" stop-color="#7784f9"/><stop offset="0.6" stop-color="#aa83ff"/><stop offset="0.92" stop-color="#e18dff" stop-opacity="0.2"/><stop offset="1" stop-color="#f3a9ff" stop-opacity="0"/></linearGradient><linearGradient id="무제_그라디언트_3" x1="1088.63" y1="-2158.51" x2="936.51" y2="-2408.67" gradientTransform="matrix(1, 0, 0, -1, 0, -1932.7)" gradientUnits="userSpaceOnUse"><stop offset="0" stop-color="#a96ff3"/><stop offset="1" stop-color="#b38af2" stop-opacity="0"/></linearGradient><linearGradient id="무제_그라디언트_4" x1="2248.83" y1="-2355.52" x2="1921.5" y2="-2013.18" gradientTransform="matrix(1, 0, 0, -1, 0, -1932.7)" gradientUnits="userSpaceOnUse"><stop offset="0.29" stop-color="#ff8c8c" stop-opacity="0"/><stop offset="1" stop-color="#ffa4da"/></linearGradient><linearGradient id="무제_그라디언트_52" x1="3001.27" y1="-2200.33" x2="2776.22" y2="-2368.86" gradientTransform="matrix(0.99, -0.1, -0.1, -0.99, -88.84, -1655.94)" gradientUnits="userSpaceOnUse"><stop offset="0" stop-color="#b97af4"/><stop offset="1" stop-color="#b38af2" stop-opacity="0"/></linearGradient><linearGradient id="무제_그라디언트_52-2" x1="-51.08" y1="-1889.8" x2="-276.13" y2="-2058.33" xlink:href="#무제_그라디언트_52"/></defs><g id="레이어_2" data-name="레이어 2"><g id="레이어_1-2" data-name="레이어 1"><g class="cls-2"><path class="cls-3" d="M2366.46,634.24c-55.76-31.51-238.1,83.43-323.26,90.72-235,20-127-118.36-272.91-106-75.06,6.37-137,9.57-168.06-6.16-75.34-38.17,41.61-82.89-60.61-90.22-66.9-2.31-71.12,166.94-383,153.83-174.17-7.33-203-103.52-295.57-94.46-130.13,12.73-84.87,109-213.36,89.45-90.55-13.78-160.82-105.53-222.83-113.21C357.56,549.58,248.4,599.91,178.66,597,106.15,593.9-.57,557.65-.57,557.65L0,.54H3066.54V557.65s-161-47.55-301.79,32.17c-41.91,23.73-146.73,157.62-301.22,98C2433.2,676.17,2401.69,654.16,2366.46,634.24Z" transform="translate(494.4 128.97)"/><g class="cls-4"><path class="cls-5" d="M2151.53,194.57c-124.72-25.43-65.25-32.14-112.25-125.83-14-28-126.14-134.55-146-154.66-56.62-57.41-154.39,11.64-210.07-37.26-35.5-31.2-115.63,73.32-210.15,88-48.6,7.56-77,35.68-113,69-75.15,69.62-167.62,43.52-266,107-83.92,54.19-94.34,133.47-36.26,188.52,66.82,63.32,158.62,61.38,275.19,83.43,102.71,19.44,106.59,98.19,180.44,171,51,50.29,126.91,58.27,202.36,40.63,98.58-23.07,198.31,32.17,260.13-19.7,68.33-57.29,134.08-60,194.26-71C2356.3,499.55,2286,222,2151.53,194.57Z" transform="translate(494.4 128.97)"/></g><path class="cls-6" d="M612.11,310.22c10.78,12.7,22,25.15,33,37.64C722,434.15,646.21,497.57,703.08,539c37.73,27.48,121.75,3,114.84,50.94C802.61,696.36,909.4,712,985.06,677.86c38.58-17.4,52.53-36.71,95.15-70.41,65.23-51.58,123.2,25.82,220.07,45.21,91.82,18.38,155.09-32.64,145-93.95-15.72-95.77-150.11-103.82-156.61-192.65-11.58-158.81-83.41-120.37-198-155.64C991.15,179.77,984.5,108.55,919.93,57c-49.57-44.33-107-61.77-175-54.32C570.65,21.71,512.07,192.13,612.11,310.22Z" transform="translate(494.4 128.97)"/><path class="cls-7" d="M2187.61-9.15c-40.28,20.16-48.08,6.94-153.16-16-110.71-24.13-233.54,48.23-231.79,165.47.59,40,12,69.17,19.36,113.66,11.61,70-33.27,104-69.93,138.17-40,37.25-152.19,119.21-70.79,245.47,47,72.87,139.71,112.7,237.81,77.19,53.54-19.39,95.39-52.86,141.08-84.67,159.12-110.72,155.68-96.84,356.14-134-1.46-4.55,7.62-2,34.65-12.18,125.48-47.11,15.32-106.45,64.74-200.79,60.65-115.74,198.9-196.51,65.52-326.08C2482.63-138.61,2259.28-45,2187.61-9.15Z" transform="translate(494.4 128.97)"/><path class="cls-8" d="M2635.94,308.14c12,11.54,24.39,22.8,36.68,34.1,85.16,78.07,16.21,148.84,77,184.28C2789.91,550,2871,517.23,2869,565.57c-4.46,107.45,103.36,112.18,175.17,70.57,36.62-21.21,48.55-41.83,87.54-79.68,59.67-57.9,125.18,13.23,223.51,22.72,93.22,9,151-48.18,134.77-108.15-25.33-93.69-159.85-88.09-175.3-175.81-27.6-156.83-95.17-111.31-212.74-134.8C2999.83,140,2986,69.82,2916.55,25.09c-53.8-39.09-112.74-50.63-179.64-36.33C2565.5,25.31,2524.46,200.78,2635.94,308.14Z" transform="translate(494.4 128.97)"/><path class="cls-9" d="M-432.16,308.14c12,11.54,24.39,22.8,36.68,34.1,85.15,78.07,16.2,148.84,77,184.28,40.32,23.52,121.43-9.29,119.41,39.05C-203.56,673-95.74,677.75-23.92,636.14c36.62-21.21,48.55-41.83,87.53-79.68,59.68-57.9,125.19,13.23,223.52,22.72,93.22,9,151-48.18,134.77-108.15-25.33-93.69-159.85-88.09-175.3-175.81C219,138.39,151.43,183.91,33.85,160.42-68.27,140-82.09,69.82-151.55,25.09-205.35-14-264.29-25.54-331.19-11.24-502.61,25.31-543.64,200.78-432.16,308.14Z" transform="translate(494.4 128.97)"/></g></g></g></svg>