<svg width="1713" height="760" viewBox="0 0 1713 760" fill="none" xmlns="http://www.w3.org/2000/svg">
<mask id="mask0" style="mask-type:alpha" maskUnits="userSpaceOnUse" x="0" y="0" width="1713" height="760">
<rect width="1713" height="760" fill="#C4C4C4"/>
</mask>
<g mask="url(#mask0)">
<path d="M1712.79 669.334C1660.63 632.168 1478.7 715.637 1393.54 722.923C1158.58 742.971 1266.59 604.564 1120.63 616.901C1045.57 623.262 983.584 626.462 952.567 610.732C877.228 572.564 994.182 527.842 891.956 520.517C825.059 518.204 820.838 687.454 508.929 674.346C334.759 667.021 305.899 570.83 213.354 579.89C83.2309 592.612 134.849 688.996 0 669.334V-1.49805H1712.79V669.334Z" fill="url(#paint0_linear)"/>
<g opacity="0.8">
<path opacity="0.8" d="M1503.18 192.532C1378.46 167.104 1437.93 160.401 1390.93 66.7049C1376.9 38.7308 1264.79 -67.8476 1244.97 -87.9575C1188.35 -145.366 1090.58 -76.311 1034.9 -125.219C999.402 -156.413 919.269 -51.8946 824.749 -37.1773C776.152 -29.6127 747.778 -1.48889 711.788 31.8403C636.644 101.457 544.172 75.3555 445.822 138.868C361.903 193.056 351.48 272.335 409.564 327.384C476.378 390.709 568.181 388.762 684.75 410.819C787.466 430.255 791.341 509.009 865.194 581.847C916.151 632.14 992.097 640.116 1067.55 622.478C1166.13 599.41 1265.86 654.646 1327.68 602.78C1396.01 545.484 1461.76 542.788 1521.94 531.74C1707.95 497.513 1637.66 219.944 1503.18 192.532Z" fill="url(#paint1_linear)"/>
</g>
<path opacity="0.6" d="M-36.24 308.183C-25.4606 320.885 -14.2783 333.334 -3.19665 345.824C73.6192 432.113 -2.13885 495.539 54.73 536.948C92.4579 564.427 176.477 539.996 169.576 587.883C154.263 694.326 261.05 709.95 336.707 675.824C375.291 658.422 389.244 639.115 431.858 605.412C497.088 553.841 555.065 631.239 651.929 650.631C743.755 669.007 807.021 617.987 796.947 556.678C781.231 460.905 646.841 452.86 640.344 364.03C628.758 205.212 556.929 243.657 442.335 208.387C342.802 177.733 336.153 106.517 271.577 54.9888C222.012 10.6586 164.539 -6.78562 96.538 0.66626C-77.6954 19.677 -136.277 190.096 -36.24 308.183Z" fill="url(#paint2_linear)"/>
<path opacity="0.4" d="M1539.26 -11.1829C1498.98 8.98061 1491.18 -4.24326 1386.1 -27.1441C1275.39 -51.2786 1152.56 21.0864 1154.31 138.328C1154.9 178.308 1166.28 207.493 1173.67 251.984C1185.28 321.958 1140.4 356.001 1103.74 390.16C1063.78 427.403 951.551 509.367 1032.95 635.63C1079.93 708.497 1172.66 748.322 1270.76 712.814C1324.3 693.422 1366.15 659.958 1411.84 628.151C1570.96 517.425 1567.52 531.304 1767.98 494.177C1766.52 489.628 1775.6 492.134 1802.63 481.994C1928.11 434.882 1817.95 375.548 1867.37 281.207C1928.02 165.47 2066.27 84.6998 1932.89 -44.8787C1834.28 -140.646 1610.93 -47.0763 1539.26 -11.1829Z" fill="url(#paint3_linear)"/>
</g>
<defs>
<linearGradient id="paint0_linear" x1="0" y1="361.714" x2="1712.79" y2="361.714" gradientUnits="userSpaceOnUse">
<stop stop-color="#6F85FA"/>
<stop offset="0.265625" stop-color="#824CF5"/>
<stop offset="0.578125" stop-color="#C370F1"/>
<stop offset="0.744792" stop-color="#FF92ED"/>
<stop offset="0.869792" stop-color="#FFAFFC"/>
</linearGradient>
<linearGradient id="paint1_linear" x1="471.942" y1="288.632" x2="1327.47" y2="170.642" gradientUnits="userSpaceOnUse">
<stop offset="2.13112e-08" stop-color="#8B63FF"/>
<stop offset="0.193013" stop-color="#7784F9"/>
<stop offset="0.602332" stop-color="#AA83FF"/>
<stop offset="0.919131" stop-color="#E18DFF" stop-opacity="0.2"/>
<stop offset="1" stop-color="#F3A9FF" stop-opacity="0"/>
</linearGradient>
<linearGradient id="paint2_linear" x1="460.658" y1="236.169" x2="308.539" y2="486.331" gradientUnits="userSpaceOnUse">
<stop stop-color="#A96FF3"/>
<stop offset="1" stop-color="#B38AF2" stop-opacity="0"/>
</linearGradient>
<linearGradient id="paint3_linear" x1="1705.46" y1="320.413" x2="1378.13" y2="-21.9282" gradientUnits="userSpaceOnUse">
<stop offset="0.2935" stop-color="#FF8C8C" stop-opacity="0"/>
<stop offset="1" stop-color="#FFA4DA"/>
</linearGradient>
</defs>
</svg>
