<svg width="375" height="353" viewBox="0 0 375 353" fill="none" xmlns="http://www.w3.org/2000/svg">
<mask id="mask0" style="mask-type:alpha" maskUnits="userSpaceOnUse" x="0" y="0" width="375" height="353">
<rect width="375" height="353" fill="#C4C4C4"/>
</mask>
<g mask="url(#mask0)">
<g clip-path="url(#clip0)">
<path d="M392.779 196.933C378.799 186.188 330.046 210.319 307.226 212.425C244.259 218.221 273.203 178.208 234.09 181.775C213.975 183.614 197.363 184.539 189.051 179.991C168.862 168.957 200.203 156.029 172.808 153.911C154.881 153.242 153.75 202.171 70.1636 198.382C23.489 196.264 15.755 168.456 -9.04551 171.075C-43.9162 174.753 -30.0835 202.617 -66.2207 196.933V3H392.779V196.933V196.933Z" fill="url(#paint0_linear)"/>
<path d="M393.779 336.933C379.799 326.188 331.046 350.319 308.226 352.425C245.259 358.221 274.203 318.208 235.09 321.775C214.975 323.614 198.363 324.539 190.051 319.991C169.862 308.957 201.203 296.029 173.808 293.911C155.881 293.242 154.75 342.171 71.1636 338.382C24.489 336.264 16.755 308.456 -8.04551 311.075C-42.9162 314.753 -29.0835 342.617 -65.2207 336.933V143H393.779V336.933V336.933Z" fill="url(#paint1_linear)"/>
<path d="M391.779 113.933C377.799 103.188 329.046 127.319 306.226 129.425C243.259 135.221 272.203 95.2082 233.09 98.7747C212.975 100.614 196.363 101.539 188.051 96.9915C167.862 85.9574 199.203 73.0285 171.808 70.9108C153.881 70.2421 152.75 119.171 69.1636 115.382C22.489 113.264 14.755 85.4558 -10.0455 88.075C-44.9162 91.753 -31.0835 119.617 -67.2207 113.933V-80H391.779V113.933V113.933Z" fill="url(#paint2_linear)"/>
<g opacity="0.8">
<path opacity="0.8" d="M361.786 93.5826C320.537 83.5555 340.204 80.9121 324.662 43.9636C320.021 32.9322 282.941 -9.09629 276.386 -17.0265C257.662 -39.6652 225.326 -12.4338 206.911 -31.7202C195.17 -44.0216 168.668 -2.8053 137.407 2.99835C121.335 5.9814 111.951 17.0718 100.047 30.215C75.1949 57.6679 44.6119 47.3749 12.0843 72.4207C-15.6702 93.7894 -19.1175 125.052 0.0926718 146.761C22.1902 171.733 52.5523 170.965 91.1051 179.663C125.076 187.327 126.358 218.383 150.783 247.106C167.636 266.939 192.754 270.085 217.709 263.129C250.311 254.032 283.295 275.814 303.743 255.361C326.341 232.767 348.085 231.704 367.988 227.347C429.507 213.85 406.261 104.393 361.786 93.5826Z" fill="url(#paint3_linear)"/>
</g>
<path opacity="0.6" d="M-101.842 125.461C-97.4596 131.601 -92.9132 137.619 -88.4078 143.657C-57.1769 185.369 -87.9777 216.03 -64.8566 236.047C-49.5176 249.33 -15.3582 237.521 -18.1639 260.669C-24.3896 312.125 19.0265 319.677 49.7864 303.18C65.4735 294.768 71.1462 285.435 88.4717 269.143C114.992 244.213 138.564 281.628 177.946 291.002C215.279 299.885 241.001 275.222 236.905 245.585C230.516 199.287 175.877 195.398 173.235 152.458C168.525 75.684 139.322 94.2685 92.7314 77.219C52.2644 62.4006 49.5611 27.9742 23.3067 3.06528C3.15506 -18.3642 -20.2118 -26.7968 -47.8588 -23.1945C-118.697 -14.0046 -142.514 68.3771 -101.842 125.461Z" fill="url(#paint4_linear)"/>
<path opacity="0.4" d="M444.778 34.518C426.128 42.9285 422.518 37.4126 373.875 27.8604C322.62 17.7935 265.757 47.978 266.565 96.8809C266.841 113.557 272.109 125.731 275.528 144.288C280.902 173.476 260.129 187.675 243.157 201.923C224.656 217.458 172.7 251.646 210.382 304.312C232.133 334.706 275.061 351.318 320.475 336.507C345.263 328.418 364.635 314.46 385.791 301.193C459.456 255.007 457.863 260.797 550.666 245.31C549.986 243.413 554.192 244.458 566.703 240.229C624.797 220.578 573.797 195.829 596.674 156.478C624.755 108.202 688.755 74.5119 627.007 20.463C581.359 -19.4827 477.957 19.5464 444.778 34.518Z" fill="url(#paint5_linear)"/>
</g>
</g>
<defs>
<linearGradient id="paint0_linear" x1="-66.2207" y1="108.002" x2="392.779" y2="108.002" gradientUnits="userSpaceOnUse">
<stop offset="0.0729167" stop-color="#6F85FA"/>
<stop offset="0.328125" stop-color="#824CF5"/>
<stop offset="0.442708" stop-color="#9456F4"/>
<stop offset="0.625" stop-color="#C370F1"/>
<stop offset="0.791667" stop-color="#FF92ED"/>
<stop offset="0.942708" stop-color="#FFAFFC"/>
</linearGradient>
<linearGradient id="paint1_linear" x1="-65.2207" y1="248.002" x2="393.779" y2="248.002" gradientUnits="userSpaceOnUse">
<stop offset="0.0729167" stop-color="#6F85FA"/>
<stop offset="0.328125" stop-color="#824CF5"/>
<stop offset="0.442708" stop-color="#9456F4"/>
<stop offset="0.625" stop-color="#C370F1"/>
<stop offset="0.791667" stop-color="#FF92ED"/>
<stop offset="0.942708" stop-color="#FFAFFC"/>
</linearGradient>
<linearGradient id="paint2_linear" x1="-67.2207" y1="25.002" x2="391.779" y2="25.002" gradientUnits="userSpaceOnUse">
<stop offset="0.0729167" stop-color="#6F85FA"/>
<stop offset="0.328125" stop-color="#824CF5"/>
<stop offset="0.442708" stop-color="#9456F4"/>
<stop offset="0.625" stop-color="#C370F1"/>
<stop offset="0.791667" stop-color="#FF92ED"/>
<stop offset="0.942708" stop-color="#FFAFFC"/>
</linearGradient>
<linearGradient id="paint3_linear" x1="20.7233" y1="131.479" x2="305.247" y2="98.5689" gradientUnits="userSpaceOnUse">
<stop offset="2.13112e-08" stop-color="#8B63FF"/>
<stop offset="0.193013" stop-color="#7784F9"/>
<stop offset="0.602332" stop-color="#AA83FF"/>
<stop offset="0.919131" stop-color="#E18DFF" stop-opacity="0.2"/>
<stop offset="1" stop-color="#F3A9FF" stop-opacity="0"/>
</linearGradient>
<linearGradient id="paint4_linear" x1="100.181" y1="90.6488" x2="1.16139" y2="225.023" gradientUnits="userSpaceOnUse">
<stop stop-color="#A96FF3"/>
<stop offset="0.520833" stop-color="#AA71F3" stop-opacity="0.911458"/>
<stop offset="1" stop-color="#B38AF2" stop-opacity="0"/>
</linearGradient>
<linearGradient id="paint5_linear" x1="521.72" y1="172.831" x2="386.552" y2="15.9325" gradientUnits="userSpaceOnUse">
<stop offset="0.2935" stop-color="#FF8C8C" stop-opacity="0"/>
<stop offset="1" stop-color="#FFA4DA"/>
</linearGradient>
<clipPath id="clip0">
<rect width="375" height="433" fill="white" transform="translate(0 -80)"/>
</clipPath>
</defs>
</svg>
