<svg width="3067" height="727" viewBox="0 0 3067 727" fill="none" xmlns="http://www.w3.org/2000/svg">
<mask id="mask0" style="mask-type:alpha" maskUnits="userSpaceOnUse" x="0" y="0" width="3067" height="727">
<rect width="3067" height="727" fill="#C4C4C4"/>
</mask>
<g mask="url(#mask0)">
<path d="M2367.03 633.7C2311.27 602.19 2128.93 717.13 2043.77 724.42C1808.77 744.42 1916.77 606.06 1770.86 618.42C1695.8 624.79 1633.86 627.99 1602.8 612.26C1527.46 574.09 1644.41 529.37 1542.19 522.04C1475.29 519.73 1471.07 688.98 1159.19 675.87C985.02 668.54 956.19 572.35 863.62 581.41C733.49 594.14 778.75 690.41 650.26 670.86C559.71 657.08 489.44 565.33 427.43 557.65C358.13 549.04 248.97 599.37 179.23 596.46C106.72 593.36 0 557.11 0 557.11L0.57 0H3067.11V557.11C3067.11 557.11 2906.11 509.56 2765.32 589.28C2723.41 613.01 2618.59 746.9 2464.1 687.28C2433.77 675.63 2402.26 653.62 2367.03 633.7Z" fill="url(#paint0_linear)"/>
<g opacity="0.8">
<path opacity="0.8" d="M2151.93 193.54C2027.21 168.11 2086.68 161.4 2039.68 67.7099C2025.68 39.7099 1913.54 -66.8401 1893.68 -86.9501C1837.06 -144.36 1739.29 -75.3101 1683.61 -124.21C1648.11 -155.41 1567.98 -50.8901 1473.46 -36.2101C1424.86 -28.6501 1396.46 -0.530083 1360.46 32.7899C1285.31 102.41 1192.84 76.3099 1094.46 139.79C1010.54 193.98 1000.12 273.26 1058.2 328.31C1125.02 391.63 1216.82 389.69 1333.39 411.74C1436.1 431.18 1439.98 509.93 1513.83 582.74C1564.83 633.03 1640.74 641.01 1716.19 623.37C1814.77 600.3 1914.5 655.54 1976.32 603.67C2044.65 546.38 2110.4 543.67 2170.58 532.67C2356.7 498.52 2286.4 220.97 2151.93 193.54Z" fill="url(#paint1_linear)"/>
</g>
<path opacity="0.6" d="M612.51 309.19C623.29 321.89 634.51 334.34 645.51 346.83C722.4 433.12 646.61 496.54 703.48 537.97C741.21 565.45 825.23 540.97 818.32 588.91C803.01 695.33 909.8 710.97 985.46 676.83C1024.04 659.43 1037.99 640.12 1080.61 606.42C1145.84 554.84 1203.81 632.24 1300.68 651.63C1392.5 670.01 1455.77 618.99 1445.68 557.68C1429.96 461.91 1295.57 453.86 1289.07 365.03C1277.49 206.22 1205.66 244.66 1091.07 209.39C991.55 178.74 984.9 107.52 920.33 55.9702C870.76 11.6402 813.33 -5.79984 745.33 1.65016C571.05 20.6802 512.47 191.1 612.51 309.19Z" fill="url(#paint2_linear)"/>
<path opacity="0.4" d="M2188.01 -10.1803C2147.73 9.97969 2139.93 -3.24031 2034.85 -26.1803C1924.14 -50.3103 1801.31 22.0497 1803.06 139.29C1803.65 179.29 1815.06 208.46 1822.42 252.95C1834.03 322.95 1789.15 356.95 1752.49 391.12C1712.49 428.37 1600.3 510.33 1681.7 636.59C1728.7 709.46 1821.41 749.29 1919.51 713.78C1973.05 694.39 2014.9 660.92 2060.59 629.11C2219.71 518.39 2216.27 532.27 2416.73 495.11C2415.27 490.56 2424.35 493.11 2451.38 482.93C2576.86 435.82 2466.7 376.48 2516.12 282.14C2576.77 166.4 2715.02 85.6297 2581.64 -43.9403C2483.03 -139.64 2259.68 -46.0303 2188.01 -10.1803Z" fill="url(#paint3_linear)"/>
<path opacity="0.6" d="M2636.34 307.11C2648.34 318.65 2660.73 329.91 2673.02 341.21C2758.18 419.28 2689.23 490.05 2750.02 525.49C2790.31 548.97 2871.4 516.2 2869.4 564.54C2864.94 671.99 2972.76 676.72 3044.57 635.11C3081.19 613.9 3093.12 593.28 3132.11 555.43C3191.78 497.53 3257.29 568.66 3355.62 578.15C3448.84 587.15 3506.62 529.97 3490.39 470C3465.06 376.31 3330.54 381.91 3315.09 294.19C3287.49 137.36 3219.92 182.88 3102.35 159.39C3000.23 138.97 2986.4 68.7901 2916.95 24.0601C2863.15 -15.0299 2804.21 -26.5699 2737.31 -12.2699C2565.9 24.2801 2524.86 199.75 2636.34 307.11Z" fill="url(#paint4_linear)"/>
<path opacity="0.6" d="M-431.761 306.28C-419.761 317.82 -407.371 329.08 -395.081 340.38C-309.921 418.45 -378.871 489.22 -318.081 524.66C-277.791 548.14 -196.701 515.37 -198.701 563.71C-203.161 671.16 -95.3411 675.89 -23.5311 634.28C13.0889 613.07 25.0189 592.45 64.0089 554.6C123.679 496.7 189.189 567.83 287.519 577.32C380.739 586.32 438.519 529.14 422.289 469.17C396.959 375.48 262.439 381.08 246.989 293.36C219.389 136.53 151.819 182.05 34.2489 158.56C-67.8711 138.14 -81.701 67.9595 -151.151 23.2295C-204.951 -15.8605 -263.891 -27.4005 -330.791 -13.1005C-502.201 23.4495 -543.241 198.92 -431.761 306.28Z" fill="url(#paint5_linear)"/>
</g>
<defs>
<linearGradient id="paint0_linear" x1="0" y1="363.2" x2="3067.11" y2="363.2" gradientUnits="userSpaceOnUse">
<stop stop-color="#A874F5"/>
<stop offset="0.21" stop-color="#6F85FA"/>
<stop offset="0.38" stop-color="#824CF5"/>
<stop offset="0.53" stop-color="#C370F1"/>
<stop offset="0.65" stop-color="#FF92ED"/>
<stop offset="0.75" stop-color="#FFAFFC"/>
<stop offset="0.84" stop-color="#F8A8FA"/>
<stop offset="0.92" stop-color="#DE8AF3"/>
<stop offset="1" stop-color="#A672F7"/>
</linearGradient>
<linearGradient id="paint1_linear" x1="1127.6" y1="339.74" x2="1983.13" y2="221.75" gradientUnits="userSpaceOnUse">
<stop stop-color="#8B63FF"/>
<stop offset="0.19" stop-color="#7784F9"/>
<stop offset="0.6" stop-color="#AA83FF"/>
<stop offset="0.92" stop-color="#E18DFF" stop-opacity="0.2"/>
<stop offset="1" stop-color="#F3A9FF" stop-opacity="0"/>
</linearGradient>
<linearGradient id="paint2_linear" x1="1089.03" y1="224.78" x2="936.91" y2="474.94" gradientUnits="userSpaceOnUse">
<stop stop-color="#A96FF3"/>
<stop offset="1" stop-color="#B38AF2" stop-opacity="0"/>
</linearGradient>
<linearGradient id="paint3_linear" x1="2249.23" y1="421.79" x2="1921.9" y2="79.4497" gradientUnits="userSpaceOnUse">
<stop offset="0.29" stop-color="#FF8C8C" stop-opacity="0"/>
<stop offset="1" stop-color="#FFA4DA"/>
</linearGradient>
<linearGradient id="paint4_linear" x1="3102.85" y1="221.23" x2="2896.9" y2="410.58" gradientUnits="userSpaceOnUse">
<stop stop-color="#B97AF4"/>
<stop offset="1" stop-color="#B38AF2" stop-opacity="0"/>
</linearGradient>
<linearGradient id="paint5_linear" x1="34.7493" y1="220.399" x2="-171.197" y2="409.749" gradientUnits="userSpaceOnUse">
<stop stop-color="#B97AF4"/>
<stop offset="1" stop-color="#B38AF2" stop-opacity="0"/>
</linearGradient>
</defs>
</svg>
