<svg width="60" height="60" viewBox="0 0 60 60" fill="none" xmlns="http://www.w3.org/2000/svg">
<path d="M48.3334 2.5C43.2708 2.5 39.1667 6.60405 39.1667 11.6666H4.79174C3.52599 11.6666 2.5 12.6927 2.5 13.9584V55.2084C2.5 56.474 3.52599 57.5 4.79163 57.5H48.3333C53.3959 57.5 57.5 53.3959 57.5 48.3334V11.6666C57.5 6.60405 53.3959 2.5 48.3334 2.5ZM48.3334 52.9166H7.08337V16.25H39.1667V48.3334C39.1667 49.599 40.1927 50.625 41.4584 50.625C42.724 50.625 43.75 49.599 43.75 48.3334C43.75 45.8021 45.8021 43.75 48.3334 43.75C50.8647 43.75 52.9167 45.8021 52.9167 48.3334C52.9167 50.8647 50.8647 52.9166 48.3334 52.9166ZM52.9166 40.3125C50.0805 38.6751 46.5862 38.6751 43.75 40.3125V11.6666C43.75 9.13534 45.8021 7.08326 48.3334 7.08326C50.8647 7.08326 52.9167 9.13523 52.9167 11.6666V40.3125H52.9166Z" fill="#8244FF" fill-opacity="0.5"/>
<path d="M11.6667 23.125V39.1666C11.6667 44.2292 15.7707 48.3332 20.8333 48.3332H36.8751V43.75H32.2917V32.2916H27.7083V43.75H20.8333C18.3021 43.75 16.2501 41.698 16.2501 39.1666V36.875H20.8334V32.2916H16.2501V25.4166H36.8751V20.8333H13.9584C12.6928 20.8334 11.6667 21.8593 11.6667 23.125Z" fill="#8244FF" fill-opacity="0.5"/>
</svg>
