<svg width="375" height="182" viewBox="0 0 375 182" fill="none" xmlns="http://www.w3.org/2000/svg">
<mask id="mask0" style="mask-type:alpha" maskUnits="userSpaceOnUse" x="0" y="0" width="375" height="182">
<rect opacity="0.4" width="375" height="182" fill="#C4C4C4"/>
</mask>
<g mask="url(#mask0)">
<path d="M408.423 17.1363C395.587 26.2782 350.826 5.74686 329.873 3.95451C272.061 -0.976797 298.636 33.0682 262.725 30.0336C244.256 28.4688 229.005 27.6817 221.373 31.5509C202.837 40.9393 231.613 51.94 206.46 53.7418C190.001 54.3108 188.962 12.6791 112.219 15.9035C69.3654 17.7053 62.2645 41.3661 39.4944 39.1375C7.47845 36.008 20.1787 12.2998 -13 17.1363V182.146H408.423V17.1363Z" fill="url(#paint0_linear)"/>
<g opacity="0.8">
<path opacity="0.8" d="M361.77 134.419C331.083 140.673 345.714 142.322 334.152 165.369C330.7 172.25 303.114 198.466 298.237 203.413C284.308 217.534 260.252 200.548 246.552 212.578C237.818 220.251 218.101 194.542 194.845 190.922C182.888 189.061 175.907 182.143 167.052 173.945C148.563 156.821 125.811 163.241 101.613 147.619C80.9649 134.29 78.4003 114.789 92.6916 101.248C109.131 85.6715 131.718 86.1505 160.399 80.7249C185.672 75.9442 186.626 56.5724 204.797 38.6561C217.334 26.2851 236.02 24.3231 254.586 28.6617C278.839 34.336 303.377 20.749 318.589 33.5069C335.401 47.6005 351.577 48.2637 366.384 50.9811C412.151 59.4004 394.857 127.676 361.77 134.419Z" fill="url(#paint1_linear)"/>
</g>
<path opacity="0.6" d="M-21.9167 105.971C-19.2645 102.847 -16.5131 99.7846 -13.7865 96.7122C5.11352 75.487 -13.5263 59.8858 0.465969 49.7002C9.74869 42.941 30.421 48.9503 28.7231 37.1712C24.9555 10.9886 51.2297 7.1456 69.8447 15.5399C79.3381 19.8203 82.7711 24.5694 93.256 32.8596C109.306 45.5447 123.57 26.5066 147.403 21.7366C169.996 17.2166 185.563 29.7664 183.084 44.8469C179.217 68.405 146.151 70.3838 144.553 92.2339C141.702 131.3 124.029 121.843 95.8338 130.518C71.3443 138.059 69.7084 155.576 53.8199 168.251C41.6247 179.155 27.4838 183.446 10.7526 181.613C-32.1165 176.937 -46.5301 135.018 -21.9167 105.971Z" fill="url(#paint2_linear)"/>
<path opacity="0.4" d="M365.726 184.528C355.814 179.568 353.895 182.821 328.043 188.454C300.802 194.39 270.581 176.59 271.01 147.751C271.157 137.917 273.956 130.738 275.774 119.795C278.63 102.583 267.589 94.2088 258.569 85.8066C248.737 76.6458 221.123 56.4843 241.15 25.4265C252.71 7.50308 275.526 -2.29314 299.662 6.44096C312.836 11.2111 323.132 19.4425 334.376 27.2663C373.526 54.5023 372.68 51.0883 422.002 60.2207C421.641 61.3397 423.876 60.7233 430.525 63.2174C461.401 74.806 434.296 89.4008 446.454 112.606C461.378 141.075 495.392 160.943 462.575 192.816C438.315 216.373 383.359 193.357 365.726 184.528Z" fill="url(#paint3_linear)"/>
</g>
<defs>
<linearGradient id="paint0_linear" x1="-13" y1="92.8037" x2="408.423" y2="92.8037" gradientUnits="userSpaceOnUse">
<stop stop-color="#6F85FA"/>
<stop offset="0.265625" stop-color="#824CF5"/>
<stop offset="0.578125" stop-color="#C370F1"/>
<stop offset="0.744792" stop-color="#FF92ED"/>
<stop offset="0.869792" stop-color="#FFAFFC"/>
</linearGradient>
<linearGradient id="paint1_linear" x1="108.039" y1="110.78" x2="318.534" y2="139.819" gradientUnits="userSpaceOnUse">
<stop offset="2.13112e-08" stop-color="#8B63FF"/>
<stop offset="0.193013" stop-color="#7784F9"/>
<stop offset="0.602332" stop-color="#AA83FF"/>
<stop offset="0.919131" stop-color="#E18DFF" stop-opacity="0.2"/>
<stop offset="1" stop-color="#F3A9FF" stop-opacity="0"/>
</linearGradient>
<linearGradient id="paint2_linear" x1="100.342" y1="123.685" x2="62.929" y2="62.1416" gradientUnits="userSpaceOnUse">
<stop stop-color="#A96FF3"/>
<stop offset="1" stop-color="#B38AF2" stop-opacity="0"/>
</linearGradient>
<linearGradient id="paint3_linear" x1="406.618" y1="102.963" x2="326.102" y2="187.193" gradientUnits="userSpaceOnUse">
<stop offset="0.453125" stop-color="#FF8C8C" stop-opacity="0"/>
<stop offset="1" stop-color="#FFA4DA"/>
</linearGradient>
</defs>
</svg>
