<svg width="1440" height="1366" viewBox="0 0 1440 1366" fill="none" xmlns="http://www.w3.org/2000/svg">
<g clip-path="url(#clip0)">
<g clip-path="url(#clip1)">
<path d="M502.953 100.091C665.636 135.622 809.472 186.311 1007.37 195.464C1178.73 203.338 1427.97 148.614 1603.05 152.059C1814.84 156.193 1961.65 211.113 1980 297.235V821.245H-59.0001V184.342C-43.1285 100.386 230.16 40.5443 502.953 100.091Z" fill="url(#paint0_linear)"/>
</g>
<path d="M967.047 79.8575C804.364 143.226 660.528 233.626 462.629 249.951C291.266 263.993 42.0328 166.396 -133.05 172.54C-344.837 179.912 -491.649 277.861 -510 431.453V1366H1529V230.115C1513.13 80.3841 1239.84 -26.341 967.047 79.8575Z" fill="url(#paint1_linear)"/>
</g>
<defs>
<linearGradient id="paint0_linear" x1="960.5" y1="76.0603" x2="960.5" y2="821.245" gradientUnits="userSpaceOnUse">
<stop stop-color="#F9F9FD"/>
<stop offset="1" stop-color="#F9F9FD" stop-opacity="0"/>
</linearGradient>
<linearGradient id="paint1_linear" x1="509.5" y1="37" x2="509.5" y2="1366" gradientUnits="userSpaceOnUse">
<stop stop-color="#F1EFFF"/>
<stop offset="1" stop-color="#F1EFFF" stop-opacity="0"/>
</linearGradient>
<clipPath id="clip0">
<rect width="1443" height="1366" fill="white"/>
</clipPath>
<clipPath id="clip1">
<rect width="1443" height="1366" fill="white" transform="matrix(-1 0 0 1 1443 37.8894)"/>
</clipPath>
</defs>
</svg>
