<svg width="375" height="152" viewBox="0 0 375 152" fill="none" xmlns="http://www.w3.org/2000/svg">
<mask id="mask0" style="mask-type:alpha" maskUnits="userSpaceOnUse" x="0" y="0" width="375" height="152">
<rect width="375" height="152" fill="#C4C4C4" fill-opacity="0.4"/>
</mask>
<g mask="url(#mask0)">
<path d="M418.356 5.89336C405.71 2.72749 391.71 1.69783 377.779 2.40149C348.66 3.87821 323.879 16.5322 302.396 33.8972C287.802 45.6818 283.749 61.2468 273.046 75.443C266.231 84.4698 256.545 92.2346 245.999 98.3391C221.222 112.706 199.277 109.668 175.421 103.426C158.893 99.1086 140.55 96.0185 123.769 106.96C110.457 115.643 97.3216 121.236 81.3229 123.578C52.5807 127.755 37.4787 107.105 18.0851 95.9735C10.3216 91.505 4.83341 86.7187 -5.1155 84.9709C-18.7819 82.5064 -33.7006 84.3053 -48.1014 87.9394C-47.3511 92.7102 -45.1221 99.5398 -46.8663 104.666C-48.4317 109.183 -53.5697 113.832 -56.6178 117.826C-65.0359 128.948 -61.1029 132.245 -50.6851 137.246C-39.481 142.626 -39.0823 146.311 -37.4345 157.015C-36.2088 164.901 -34.9681 172.826 -33.7936 180.731C-16.5587 162.172 10.4432 136.992 37.9415 134.006C61.8033 131.447 89.7159 139.767 113.17 127.93C119.548 124.709 122.83 118.551 129.298 115.566C141.51 110.006 154.355 119.731 163.661 121.631C179.566 124.92 201.65 128.943 220.586 124.634C236.934 120.896 245.271 109.715 256.363 99.7945C283.895 75.0905 348.587 66.9474 372.119 87.7978C399.01 111.666 438.874 96.5647 465.258 69.9028C449.602 48.5596 434.012 27.2366 418.356 5.89336Z" fill="url(#paint0_linear)"/>
<path opacity="0.48" d="M163.661 121.631C154.406 119.711 141.51 110.006 129.298 115.567C122.815 118.511 119.533 124.67 113.17 127.93C89.7309 139.807 61.7522 131.466 37.9415 134.006C10.4944 136.972 -16.5587 162.172 -33.7935 180.731C-34.9745 172.964 -36.2066 165.216 -37.3875 157.449C-39.0119 146.961 -39.3361 142.391 -50.8981 137.146C-10.8474 116.197 30.4865 124.322 68.2665 128.916C89.762 131.537 105.964 119.37 126.679 111.727C158.657 99.8748 180.97 126.781 212.212 123.961C231.481 122.234 243.362 108.992 255.877 97.2705C276.003 78.4777 299.55 61.01 325.72 49.0949C376.418 26.0204 422.846 56.1384 448.534 83.9361C421.819 102.916 392.947 106.285 372.002 87.797C348.353 66.9456 283.829 75.0704 256.246 99.7937C245.154 109.714 236.817 120.896 220.469 124.633C201.614 129.002 179.515 124.939 163.661 121.631Z" fill="url(#paint1_linear)"/>
</g>
<defs>
<linearGradient id="paint0_linear" x1="438.001" y1="-2.26431" x2="-42.1311" y2="179.08" gradientUnits="userSpaceOnUse">
<stop offset="0.151042" stop-color="#FFB3EA"/>
<stop offset="0.427083" stop-color="#EC93EA"/>
<stop offset="0.723958" stop-color="#B07CFA"/>
<stop offset="0.859375" stop-color="#A58BF9"/>
<stop offset="1" stop-color="#97A0F8"/>
</linearGradient>
<linearGradient id="paint1_linear" x1="426.662" y1="25.8448" x2="-28.0653" y2="197.594" gradientUnits="userSpaceOnUse">
<stop stop-color="#FFC2F6"/>
<stop offset="0.265625" stop-color="#ED89EF"/>
<stop offset="1" stop-color="#8B5DF8"/>
</linearGradient>
</defs>
</svg>
