<svg width="1440" height="1143" viewBox="0 0 1440 1143" fill="none" xmlns="http://www.w3.org/2000/svg">
<g opacity="0.4" clip-path="url(#clip0)">
<path d="M1476.1 298.1C1434.29 287.632 1387.99 284.227 1341.93 286.554C1245.65 291.437 1163.71 333.277 1092.68 390.694C1044.42 429.66 1031.02 481.125 995.633 528.064C973.102 557.911 941.076 583.586 906.203 603.77C824.28 651.274 751.719 641.229 672.838 620.589C618.19 606.314 557.541 596.097 502.052 632.274C458.037 660.985 414.606 679.477 361.706 687.222C266.67 701.034 216.736 632.755 152.611 595.948C126.942 581.173 108.795 565.347 75.8991 559.568C30.7113 551.419 -18.6171 557.368 -66.2331 569.384C-63.7521 585.158 -56.3819 607.74 -62.1492 624.69C-67.3251 639.626 -84.3137 654.995 -94.3924 668.202C-122.227 704.976 -109.222 715.881 -74.7758 732.414C-37.7298 750.203 -36.4113 762.388 -30.963 797.782C-26.9102 823.855 -22.8082 850.059 -18.9244 876.196C38.0624 814.833 127.344 731.574 218.266 721.703C297.165 713.241 389.457 740.751 467.008 701.613C488.096 690.962 498.949 670.599 520.334 660.732C560.715 642.347 603.186 674.5 633.954 680.784C686.546 691.658 759.565 704.962 822.177 690.714C876.231 678.355 903.798 641.384 940.473 608.582C1031.51 526.899 1245.41 499.974 1323.22 568.915C1412.13 647.836 1543.94 597.903 1631.18 509.746C1579.41 439.175 1527.87 368.671 1476.1 298.1Z" fill="url(#paint0_linear)"/>
<path opacity="0.48" d="M633.955 680.784C603.355 674.436 560.715 642.347 520.334 660.732C498.9 670.469 488.047 690.832 467.008 701.613C389.507 740.882 296.996 713.304 218.266 721.703C127.513 731.51 38.0625 814.833 -18.9243 876.196C-22.8292 850.514 -26.9029 824.897 -30.8077 799.216C-36.1786 764.539 -37.2508 749.426 -75.48 732.083C56.9468 662.818 193.616 689.682 318.535 704.87C389.61 713.538 443.182 673.309 511.675 648.037C617.409 608.848 691.188 697.812 794.487 688.489C858.199 682.778 897.486 638.993 938.866 600.237C1005.41 538.099 1083.27 480.342 1169.8 440.945C1337.43 364.649 1490.94 464.234 1575.88 556.146C1487.55 618.904 1392.08 630.043 1322.83 568.912C1244.63 499.968 1031.29 526.832 940.085 608.579C903.411 641.381 875.844 678.352 821.79 690.711C759.445 705.157 686.377 691.722 633.955 680.784Z" fill="url(#paint1_linear)"/>
</g>
<defs>
<linearGradient id="paint0_linear" x1="1541.05" y1="271.127" x2="-46.4924" y2="870.739" gradientUnits="userSpaceOnUse">
<stop offset="0.151042" stop-color="#FFB3EA"/>
<stop offset="0.427083" stop-color="#EC93EA"/>
<stop offset="0.723958" stop-color="#B07CFA"/>
<stop offset="0.859375" stop-color="#A58BF9"/>
<stop offset="1" stop-color="#97A0F8"/>
</linearGradient>
<linearGradient id="paint1_linear" x1="1503.56" y1="364.069" x2="0.0161059" y2="931.955" gradientUnits="userSpaceOnUse">
<stop stop-color="#FFC2F6"/>
<stop offset="0.265625" stop-color="#ED89EF"/>
<stop offset="1" stop-color="#8B5DF8"/>
</linearGradient>
<clipPath id="clip0">
<rect width="1697" height="579" fill="white" transform="matrix(-0.935497 0.353335 0.353335 0.935497 1438.98 0.869141)"/>
</clipPath>
</defs>
</svg>
