<svg width="827" height="372" viewBox="0 0 827 372" fill="none" xmlns="http://www.w3.org/2000/svg">
<g filter="url(#filter0_d)">
<path d="M350.842 3H21.1579C12.7864 3 6 9.82233 6 18.2381V347.762C6 356.178 12.7864 363 21.1579 363H350.842C359.214 363 366 356.178 366 347.762V18.2381C366 9.82233 359.214 3 350.842 3Z" fill="#E1E1E9"/>
</g>
<path d="M62.392 175.512V177.42H70.276V178.896H72.976V159.816H70.276V175.512H62.392ZM56.2 170.076C60.916 170.076 64.264 168.204 64.264 164.964C64.264 161.724 60.916 159.888 56.2 159.888C51.448 159.888 48.1 161.724 48.1 164.964C48.1 168.204 51.448 170.076 56.2 170.076ZM50.836 164.82C50.836 162.84 52.996 161.724 56.2 161.724C59.404 161.724 61.528 162.84 61.528 164.82V165.108C61.528 167.088 59.404 168.204 56.2 168.204C52.996 168.204 50.836 167.088 50.836 165.108V164.82ZM54.652 179.04H57.316V174.072C61.168 173.856 64.732 173.496 67.648 173.064L67.396 171.048C61.924 171.876 53.752 172.236 46.012 172.236L46.228 174.36C49.036 174.36 51.88 174.288 54.652 174.18V179.04ZM55.084 190.488V187.5H72.976V180.336H52.276V182.424H70.384V185.412H52.492V190.812C52.492 192 53.14 192.648 54.292 192.648H73.84V190.488H55.084Z" fill="#95979F"/>
<path d="M108.7 197.268C119.26 197.268 125.34 191.7 125.34 184.276C125.34 178.58 121.948 174.932 116.572 173.46V172.948C120.924 171.348 123.996 168.02 123.996 162.836C123.996 155.924 118.62 151.06 108.7 151.06C98.78 151.06 93.404 155.924 93.404 162.836C93.404 168.02 96.476 171.348 100.828 172.948V173.46C95.452 174.932 92.06 178.58 92.06 184.276C92.06 191.7 98.14 197.268 108.7 197.268ZM108.7 189.908C104.412 189.908 102.108 187.796 102.108 184.212V182.932C102.108 179.348 104.412 177.236 108.7 177.236C112.988 177.236 115.292 179.348 115.292 182.932V184.212C115.292 187.796 112.988 189.908 108.7 189.908ZM108.7 170.196C104.604 170.196 102.428 168.148 102.428 164.82V163.796C102.428 160.468 104.604 158.42 108.7 158.42C112.796 158.42 114.972 160.468 114.972 163.796V164.82C114.972 168.148 112.796 170.196 108.7 170.196ZM147.075 197.268C158.787 197.268 164.291 188.756 164.291 174.164C164.291 159.572 158.787 151.06 147.075 151.06C135.363 151.06 129.859 159.572 129.859 174.164C129.859 188.756 135.363 197.268 147.075 197.268ZM147.075 189.14C141.955 189.14 140.291 185.236 140.291 178.388V169.94C140.291 163.092 141.955 159.188 147.075 159.188C152.195 159.188 153.859 163.092 153.859 169.94V178.388C153.859 185.236 152.195 189.14 147.075 189.14ZM176.298 185.684C172.458 185.684 170.666 187.796 170.666 190.804V192.084C170.666 194.58 171.946 196.564 174.954 197.076C173.866 200.468 171.69 203.092 168.682 205.908H175.082C179.178 202.772 181.93 197.268 181.93 192.084V190.804C181.93 187.796 180.138 185.684 176.298 185.684ZM205.263 197.268C216.975 197.268 222.479 188.756 222.479 174.164C222.479 159.572 216.975 151.06 205.263 151.06C193.551 151.06 188.047 159.572 188.047 174.164C188.047 188.756 193.551 197.268 205.263 197.268ZM205.263 189.14C200.143 189.14 198.479 185.236 198.479 178.388V169.94C198.479 163.092 200.143 159.188 205.263 159.188C210.383 159.188 212.047 163.092 212.047 169.94V178.388C212.047 185.236 210.383 189.14 205.263 189.14ZM243.638 197.268C255.35 197.268 260.854 188.756 260.854 174.164C260.854 159.572 255.35 151.06 243.638 151.06C231.926 151.06 226.422 159.572 226.422 174.164C226.422 188.756 231.926 197.268 243.638 197.268ZM243.638 189.14C238.518 189.14 236.854 185.236 236.854 178.388V169.94C236.854 163.092 238.518 159.188 243.638 159.188C248.758 159.188 250.422 163.092 250.422 169.94V178.388C250.422 185.236 248.758 189.14 243.638 189.14ZM282.013 197.268C293.725 197.268 299.229 188.756 299.229 174.164C299.229 159.572 293.725 151.06 282.013 151.06C270.301 151.06 264.797 159.572 264.797 174.164C264.797 188.756 270.301 197.268 282.013 197.268ZM282.013 189.14C276.893 189.14 275.229 185.236 275.229 178.388V169.94C275.229 163.092 276.893 159.188 282.013 159.188C287.133 159.188 288.797 163.092 288.797 169.94V178.388C288.797 185.236 287.133 189.14 282.013 189.14Z" fill="#95979F"/>
<path d="M319.244 185.904V189.04H325.196V192.016H329.452V169.072H325.196V185.904H319.244ZM313.868 180.528C318.284 180.528 321.324 178.384 321.324 175.024C321.324 171.696 318.284 169.584 313.868 169.584C309.452 169.584 306.412 171.696 306.412 175.024C306.412 178.384 309.452 180.528 313.868 180.528ZM310.7 174.896C310.7 173.52 311.916 172.72 313.868 172.72C315.82 172.72 317.036 173.52 317.036 174.896V175.216C317.036 176.56 315.82 177.36 313.868 177.36C311.916 177.36 310.7 176.56 310.7 175.216V174.896ZM311.66 189.616H315.788V184.976C318.764 184.784 321.484 184.528 323.66 184.208L323.276 181.008C318.86 181.616 311.468 181.904 304.524 181.904L304.844 185.328C307.116 185.328 309.42 185.296 311.66 185.2V189.616ZM314.668 194.608V190.416H310.412V195.344C310.412 197.136 311.34 198.064 313.132 198.064H330.028V194.608H314.668Z" fill="#95979F"/>
<path d="M125.992 242.012C125.992 246.668 127.96 250.796 130.336 252.788H132.16C129.544 250.484 127.792 246.428 127.792 243.068V241.004C127.792 237.644 129.496 233.66 132.16 231.26H130.336C127.912 233.372 125.992 237.38 125.992 242.012ZM149.679 231.572H147.879V234.74H137.607V231.572H135.807V240.956H149.679V231.572ZM147.879 239.444H137.607V236.252H147.879V239.444ZM152.535 243.548H132.951V245.108H141.831V252.716H143.655V245.108H152.535V243.548ZM174.558 239.252H171.102V231.092H169.278V251.924H171.102V240.788H174.558V239.252ZM155.382 234.308H162.894V236.108C162.894 240.62 161.19 242.78 154.782 246.164L155.862 247.532C162.678 243.836 164.718 241.316 164.718 236.084V232.748H155.382V234.308ZM192.476 231.044V251.876H194.252V231.044H192.476ZM187.676 238.268H184.34V239.804H187.676V251.3H189.428V231.404H187.676V238.268ZM181.364 239.852L181.1 240.068L181.028 239.996C181.484 238.46 181.7 236.852 181.7 234.884V232.748H179.948V234.908C179.948 239.228 178.916 241.58 175.508 246.116L176.804 247.244C178.676 244.748 179.876 242.948 180.596 241.076C180.692 240.86 180.908 240.86 181.028 241.052L184.868 246.884L186.236 245.732L182.324 239.972C182.108 239.612 181.7 239.588 181.364 239.852ZM213.298 242.036H215.122V231.044H213.298V233.708H208.594V235.148H213.298V237.932H208.594V239.372H213.298V242.036ZM207.85 231.764H206.122V235.004H199.93V231.788H198.202V241.268H207.85V231.764ZM206.122 239.804H199.93V236.468H206.122V239.804ZM203.602 251.3V248.852H215.122V243.332H201.61V244.892H213.274V247.316H201.754V251.636C201.754 252.428 202.186 252.86 202.954 252.86H215.698V251.3H203.602ZM229.249 247.964V242.42H235.585V240.86H223.201V234.02H235.369V232.46H221.377V242.42H227.425V247.964H218.545V249.5H238.129V247.964H229.249ZM245.079 242.012C245.079 237.38 243.159 233.372 240.735 231.26H238.911C241.575 233.66 243.279 237.644 243.279 241.004V243.068C243.279 246.428 241.527 250.484 238.911 252.788H240.735C243.111 250.796 245.079 246.668 245.079 242.012Z" fill="#95979F"/>
<path d="M408.552 157.636L411.53 154.658C411.828 154.358 412.182 154.12 412.572 153.958C412.963 153.796 413.381 153.712 413.804 153.712C414.226 153.712 414.644 153.796 415.035 153.958C415.425 154.12 415.779 154.358 416.077 154.658L442.152 180.72C442.452 181.018 442.689 181.372 442.852 181.762C443.014 182.152 443.098 182.571 443.098 182.993C443.098 183.416 443.014 183.834 442.852 184.225C442.689 184.615 442.452 184.969 442.152 185.267L416.077 211.342C415.779 211.642 415.425 211.879 415.035 212.042C414.644 212.204 414.226 212.288 413.804 212.288C413.381 212.288 412.963 212.204 412.572 212.042C412.182 211.879 411.828 211.642 411.53 211.342L408.552 208.365C408.25 208.061 408.011 207.701 407.85 207.304C407.689 206.907 407.609 206.482 407.614 206.054C407.619 205.625 407.709 205.202 407.879 204.809C408.05 204.416 408.297 204.061 408.606 203.765L424.769 188.365H386.219C385.796 188.366 385.377 188.283 384.986 188.122C384.595 187.961 384.24 187.724 383.94 187.424C383.641 187.125 383.404 186.77 383.243 186.379C383.081 185.988 382.999 185.569 383 185.146V180.854C382.999 180.431 383.081 180.012 383.243 179.621C383.404 179.23 383.641 178.875 383.94 178.575C384.24 178.276 384.595 178.039 384.986 177.878C385.377 177.716 385.796 177.634 386.219 177.635H424.769L408.606 162.235C408.294 161.94 408.045 161.586 407.873 161.193C407.701 160.8 407.609 160.376 407.604 159.947C407.599 159.518 407.681 159.092 407.843 158.695C408.006 158.298 408.247 157.938 408.552 157.636Z" fill="url(#paint0_linear)"/>
<path d="M408.552 157.636L411.53 154.658C411.828 154.358 412.182 154.12 412.572 153.958C412.963 153.796 413.381 153.712 413.804 153.712C414.226 153.712 414.644 153.796 415.035 153.958C415.425 154.12 415.779 154.358 416.077 154.658L442.152 180.72C442.452 181.018 442.689 181.372 442.852 181.762C443.014 182.152 443.098 182.571 443.098 182.993C443.098 183.416 443.014 183.834 442.852 184.225C442.689 184.615 442.452 184.969 442.152 185.267L416.077 211.342C415.779 211.642 415.425 211.879 415.035 212.042C414.644 212.204 414.226 212.288 413.804 212.288C413.381 212.288 412.963 212.204 412.572 212.042C412.182 211.879 411.828 211.642 411.53 211.342L408.552 208.365C408.25 208.061 408.011 207.701 407.85 207.304C407.689 206.907 407.609 206.482 407.614 206.054C407.619 205.625 407.709 205.202 407.879 204.809C408.05 204.416 408.297 204.061 408.606 203.765L424.769 188.365H386.219C385.796 188.366 385.377 188.283 384.986 188.122C384.595 187.961 384.24 187.724 383.94 187.424C383.641 187.125 383.404 186.77 383.243 186.379C383.081 185.988 382.999 185.569 383 185.146V180.854C382.999 180.431 383.081 180.012 383.243 179.621C383.404 179.23 383.641 178.875 383.94 178.575C384.24 178.276 384.595 178.039 384.986 177.878C385.377 177.716 385.796 177.634 386.219 177.635H424.769L408.606 162.235C408.294 161.94 408.045 161.586 407.873 161.193C407.701 160.8 407.609 160.376 407.604 159.947C407.599 159.518 407.681 159.092 407.843 158.695C408.006 158.298 408.247 157.938 408.552 157.636Z" fill="url(#paint1_linear)"/>
<g filter="url(#filter1_d)">
<path d="M804.94 3H475.255C466.884 3 460.098 9.82233 460.098 18.2381V347.762C460.098 356.178 466.884 363 475.255 363H804.94C813.311 363 820.098 356.178 820.098 347.762V18.2381C820.098 9.82233 813.311 3 804.94 3Z" fill="white"/>
</g>
<path d="M564.128 117H567.04L568.992 109.48H573.28V107.336H569.536L570.304 104.296H573.28V102.152H570.848L572.768 94.664H570.08L568.32 102.248H562.656L560.736 94.664H557.664L555.68 102.248H550.144L548.448 94.664H545.792L547.584 102.152H545.184V104.296H548.096L548.8 107.336H545.184V109.48H549.312L551.104 117H554.016L556.032 109.384H562.144L564.128 117ZM552.768 113.768H552.704L550.848 105.416L550.592 104.2H555.136L554.848 105.416L552.768 113.768ZM565.536 113.736L563.456 105.416L563.168 104.2H567.84L567.552 105.416L565.632 113.736H565.536ZM556.992 105.864L559.104 97.448H559.168L561.216 105.864L561.632 107.432H556.576L556.992 105.864ZM584.069 117.384C589.157 117.384 591.813 114.6 591.813 110.92C591.813 107.848 589.989 106.12 587.301 105.384V105.128C589.637 104.328 591.141 102.44 591.141 99.88C591.141 96.456 588.549 94.28 584.069 94.28C579.589 94.28 576.997 96.456 576.997 99.88C576.997 102.44 578.501 104.328 580.837 105.128V105.384C578.149 106.12 576.325 107.848 576.325 110.92C576.325 114.6 578.981 117.384 584.069 117.384ZM584.069 115.048C580.965 115.048 579.173 113.608 579.173 111.048V110.376C579.173 107.816 580.965 106.376 584.069 106.376C587.173 106.376 588.965 107.816 588.965 110.376V111.048C588.965 113.608 587.173 115.048 584.069 115.048ZM584.069 104.136C581.253 104.136 579.781 102.92 579.781 100.616V100.136C579.781 97.832 581.253 96.616 584.069 96.616C586.885 96.616 588.357 97.832 588.357 100.136V100.616C588.357 102.92 586.885 104.136 584.069 104.136ZM603.256 117.384C608.6 117.384 610.936 113.128 610.936 105.832C610.936 98.536 608.6 94.28 603.256 94.28C597.912 94.28 595.576 98.536 595.576 105.832C595.576 113.128 597.912 117.384 603.256 117.384ZM603.256 115.048C599.768 115.048 598.392 111.976 598.392 107.656V104.008C598.392 99.688 599.768 96.616 603.256 96.616C606.744 96.616 608.12 99.688 608.12 104.008V107.656C608.12 111.976 606.744 115.048 603.256 115.048ZM617.196 113.256C615.82 113.256 615.244 114.024 615.244 115.144V115.592C615.244 116.456 615.628 117.064 616.492 117.288C616.14 118.792 615.372 119.88 614.092 121.256H616.236C618.06 119.688 619.148 117.352 619.148 115.592V115.144C619.148 114.024 618.572 113.256 617.196 113.256ZM631.163 117.384C636.507 117.384 638.843 113.128 638.843 105.832C638.843 98.536 636.507 94.28 631.163 94.28C625.819 94.28 623.483 98.536 623.483 105.832C623.483 113.128 625.819 117.384 631.163 117.384ZM631.163 115.048C627.675 115.048 626.299 111.976 626.299 107.656V104.008C626.299 99.688 627.675 96.616 631.163 96.616C634.651 96.616 636.027 99.688 636.027 104.008V107.656C636.027 111.976 634.651 115.048 631.163 115.048ZM650.35 117.384C655.694 117.384 658.03 113.128 658.03 105.832C658.03 98.536 655.694 94.28 650.35 94.28C645.006 94.28 642.67 98.536 642.67 105.832C642.67 113.128 645.006 117.384 650.35 117.384ZM650.35 115.048C646.862 115.048 645.486 111.976 645.486 107.656V104.008C645.486 99.688 646.862 96.616 650.35 96.616C653.838 96.616 655.214 99.688 655.214 104.008V107.656C655.214 111.976 653.838 115.048 650.35 115.048ZM669.538 117.384C674.882 117.384 677.218 113.128 677.218 105.832C677.218 98.536 674.882 94.28 669.538 94.28C664.194 94.28 661.858 98.536 661.858 105.832C661.858 113.128 664.194 117.384 669.538 117.384ZM669.538 115.048C666.05 115.048 664.674 111.976 664.674 107.656V104.008C664.674 99.688 666.05 96.616 669.538 96.616C673.026 96.616 674.402 99.688 674.402 104.008V107.656C674.402 111.976 673.026 115.048 669.538 115.048ZM690.688 121.832L700.224 93.32H696.32L686.784 121.832H690.688ZM724.713 106.12V108.968H730.665V109.448H734.921V92.072H730.665V106.12H724.713ZM719.337 101.768C723.657 101.768 726.601 99.976 726.601 97.064C726.601 94.152 723.657 92.392 719.337 92.392C714.985 92.392 712.041 94.152 712.041 97.064C712.041 99.976 714.985 101.768 719.337 101.768ZM716.297 97.032C716.297 95.784 717.449 95.144 719.337 95.144C721.193 95.144 722.345 95.784 722.345 97.032V97.128C722.345 98.376 721.193 98.984 719.337 98.984C717.449 98.984 716.297 98.376 716.297 97.128V97.032ZM717.065 109.416H721.193V105.704C724.201 105.544 726.953 105.256 729.129 104.936L728.777 101.928C724.329 102.504 716.937 102.792 709.993 102.792L710.313 106.056C712.553 106.056 714.825 106.024 717.065 105.928V109.416ZM719.849 119.048V117.48H734.921V110.376H715.753V113.256H730.953V114.792H715.881V119.272C715.881 121.064 716.809 121.992 718.601 121.992H735.497V119.048H719.849Z" fill="#A3A4AC"/>
<path d="M600.426 140.008C600.426 143.112 601.738 145.864 603.322 147.192H604.538C602.794 145.656 601.626 142.952 601.626 140.712V139.336C601.626 137.096 602.762 134.44 604.538 132.84H603.322C601.706 134.248 600.426 136.92 600.426 140.008ZM616.217 133.048H615.017V135.16H608.169V133.048H606.969V139.304H616.217V133.048ZM615.017 138.296H608.169V136.168H615.017V138.296ZM618.121 141.032H605.065V142.072H610.985V147.144H612.201V142.072H618.121V141.032ZM632.803 138.168H630.499V132.728H629.283V146.616H630.499V139.192H632.803V138.168ZM620.019 134.872H625.027V136.072C625.027 139.08 623.891 140.52 619.619 142.776L620.339 143.688C624.883 141.224 626.243 139.544 626.243 136.056V133.832H620.019V134.872ZM644.748 132.696V146.584H645.932V132.696H644.748ZM641.548 137.512H639.324V138.536H641.548V146.2H642.716V132.936H641.548V137.512ZM637.34 138.568L637.164 138.712L637.116 138.664C637.42 137.64 637.564 136.568 637.564 135.256V133.832H636.396V135.272C636.396 138.152 635.708 139.72 633.436 142.744L634.3 143.496C635.548 141.832 636.348 140.632 636.828 139.384C636.892 139.24 637.036 139.24 637.116 139.368L639.676 143.256L640.588 142.488L637.98 138.648C637.836 138.408 637.564 138.392 637.34 138.568ZM658.63 140.024H659.846V132.696H658.63V134.472H655.494V135.432H658.63V137.288H655.494V138.248H658.63V140.024ZM654.998 133.176H653.846V135.336H649.718V133.192H648.566V139.512H654.998V133.176ZM653.846 138.536H649.718V136.312H653.846V138.536ZM652.166 146.2V144.568H659.846V140.888H650.838V141.928H658.614V143.544H650.934V146.424C650.934 146.952 651.222 147.24 651.734 147.24H660.23V146.2H652.166ZM669.263 143.976V140.28H673.487V139.24H665.231V134.68H673.343V133.64H664.015V140.28H668.047V143.976H662.127V145H675.183V143.976H669.263ZM679.817 140.008C679.817 136.92 678.537 134.248 676.921 132.84H675.705C677.481 134.44 678.617 137.096 678.617 139.336V140.712C678.617 142.952 677.449 145.656 675.705 147.192H676.921C678.505 145.864 679.817 143.112 679.817 140.008Z" fill="#95979F"/>
<path d="M629.6 248.224C648.266 248.224 657.038 234.658 657.038 211.402C657.038 188.146 648.266 174.58 629.6 174.58C610.934 174.58 602.162 188.146 602.162 211.402C602.162 234.658 610.934 248.224 629.6 248.224ZM629.6 235.27C621.44 235.27 618.788 229.048 618.788 218.134V204.67C618.788 193.756 621.44 187.534 629.6 187.534C637.76 187.534 640.412 193.756 640.412 204.67V218.134C640.412 229.048 637.76 235.27 629.6 235.27ZM675.904 238.904V242.04H681.856V245.016H686.112V222.072H681.856V238.904H675.904ZM670.528 233.528C674.944 233.528 677.984 231.384 677.984 228.024C677.984 224.696 674.944 222.584 670.528 222.584C666.112 222.584 663.072 224.696 663.072 228.024C663.072 231.384 666.112 233.528 670.528 233.528ZM667.36 227.896C667.36 226.52 668.576 225.72 670.528 225.72C672.48 225.72 673.696 226.52 673.696 227.896V228.216C673.696 229.56 672.48 230.36 670.528 230.36C668.576 230.36 667.36 229.56 667.36 228.216V227.896ZM668.32 242.616H672.448V237.976C675.424 237.784 678.144 237.528 680.32 237.208L679.936 234.008C675.52 234.616 668.128 234.904 661.184 234.904L661.504 238.328C663.776 238.328 666.08 238.296 668.32 238.2V242.616ZM671.328 247.608V243.416H667.072V248.344C667.072 250.136 668 251.064 669.792 251.064H686.688V247.608H671.328Z" fill="#8244FF"/>
<path d="M543 106H738" stroke="#E2656D" stroke-width="4"/>
<defs>
<filter id="filter0_d" x="0" y="0" width="372" height="372" filterUnits="userSpaceOnUse" color-interpolation-filters="sRGB">
<feFlood flood-opacity="0" result="BackgroundImageFix"/>
<feColorMatrix in="SourceAlpha" type="matrix" values="0 0 0 0 0 0 0 0 0 0 0 0 0 0 0 0 0 0 127 0" result="hardAlpha"/>
<feOffset dy="3"/>
<feGaussianBlur stdDeviation="3"/>
<feColorMatrix type="matrix" values="0 0 0 0 0 0 0 0 0 0 0 0 0 0 0 0 0 0 0.161 0"/>
<feBlend mode="normal" in2="BackgroundImageFix" result="effect1_dropShadow"/>
<feBlend mode="normal" in="SourceGraphic" in2="effect1_dropShadow" result="shape"/>
</filter>
<filter id="filter1_d" x="454.098" y="0" width="372" height="372" filterUnits="userSpaceOnUse" color-interpolation-filters="sRGB">
<feFlood flood-opacity="0" result="BackgroundImageFix"/>
<feColorMatrix in="SourceAlpha" type="matrix" values="0 0 0 0 0 0 0 0 0 0 0 0 0 0 0 0 0 0 127 0" result="hardAlpha"/>
<feOffset dy="3"/>
<feGaussianBlur stdDeviation="3"/>
<feColorMatrix type="matrix" values="0 0 0 0 0 0 0 0 0 0 0 0 0 0 0 0 0 0 0.161 0"/>
<feBlend mode="normal" in2="BackgroundImageFix" result="effect1_dropShadow"/>
<feBlend mode="normal" in="SourceGraphic" in2="effect1_dropShadow" result="shape"/>
</filter>
<linearGradient id="paint0_linear" x1="413.049" y1="153.712" x2="413.049" y2="212.288" gradientUnits="userSpaceOnUse">
<stop stop-color="#A14CEA"/>
<stop offset="1" stop-color="#5D00FF"/>
</linearGradient>
<linearGradient id="paint1_linear" x1="362.927" y1="172.456" x2="437.449" y2="208.731" gradientUnits="userSpaceOnUse">
<stop stop-color="#A14CEA" stop-opacity="0"/>
<stop offset="1" stop-color="#867FF4"/>
</linearGradient>
</defs>
</svg>
