<svg width="375" height="173" viewBox="0 0 375 173" fill="none" xmlns="http://www.w3.org/2000/svg">
<g filter="url(#filter0_d)">
<rect x="20" y="10" width="152.5" height="152.5" rx="8" fill="#E1E1E9"/>
<path d="M81.6 48.23V48.96H82.42C83.41 48.96 83.92 49.42 83.92 50.25V50.33C83.92 51.16 83.41 51.62 82.42 51.62C81.58 51.62 81.15 51.26 80.8 50.7L80.17 51.18C80.59 51.78 81.23 52.37 82.43 52.37C83.85 52.37 84.8 51.54 84.8 50.34C84.8 49.29 84.08 48.74 83.33 48.58V48.54C84.08 48.35 84.67 47.81 84.67 46.91C84.67 45.78 83.73 45.15 82.55 45.15C81.43 45.15 80.82 45.73 80.47 46.29L81.09 46.77C81.38 46.24 81.81 45.9 82.53 45.9C83.28 45.9 83.78 46.27 83.78 47V47.07C83.78 47.75 83.31 48.23 82.36 48.23H81.6ZM93.0961 44.56V47.95H91.7561V44.71H91.0161V53H91.7561V48.58H93.0961V53.24H93.8361V44.56H93.0961ZM86.5961 46.07H89.1661V46.83C89.1661 48.64 88.5761 49.49 86.3661 50.9L86.8561 51.42C89.1961 49.87 89.9161 48.9 89.9161 46.81V45.45H86.5961V46.07ZM99.6321 48.92V49.45H101.822V49.86H102.572V44.56H101.822V48.92H99.6321ZM97.9121 47.41C99.2221 47.41 100.152 46.89 100.152 45.99C100.152 45.09 99.2221 44.58 97.9121 44.58C96.5921 44.58 95.6621 45.09 95.6621 45.99C95.6621 46.89 96.5921 47.41 97.9121 47.41ZM96.4221 45.95C96.4221 45.4 97.0221 45.09 97.9121 45.09C98.8021 45.09 99.3921 45.4 99.3921 45.95V46.03C99.3921 46.58 98.8021 46.89 97.9121 46.89C97.0221 46.89 96.4221 46.58 96.4221 46.03V45.95ZM97.4821 49.9H98.2221V48.52C99.2921 48.46 100.282 48.36 101.092 48.24L101.022 47.68C99.5021 47.91 97.2321 48.01 95.0821 48.01L95.1421 48.6C95.9221 48.6 96.7121 48.58 97.4821 48.55V49.9ZM97.6021 53.08V52.25H102.572V50.26H96.8221V50.84H101.852V51.67H96.8821V53.17C96.8821 53.5 97.0621 53.68 97.3821 53.68H102.812V53.08H97.6021ZM110.998 47.19V44.56H110.238V51.15H110.998V47.83H112.388V47.19H110.998ZM108.258 46.15V45.15H104.388V45.8H107.498V46.22C107.498 47.61 106.798 48.26 104.138 49.35L104.548 49.93C107.438 48.73 108.258 47.95 108.258 46.15ZM106.308 50.43H105.548V52.92C105.548 53.25 105.728 53.43 106.048 53.43H111.198V52.8H106.308V50.43Z" fill="#95979F"/>
<path d="M64.966 70.25H66.604L67.358 67.234H69.035V66.233H67.605L67.865 65.141H69.035V64.14H68.112L68.853 61.176H67.423L66.76 64.166H64.693L63.965 61.176H62.327L61.573 64.179H59.532L58.895 61.176H57.439L58.141 64.153H57.231V65.154H58.375L58.622 66.233H57.231V67.234H58.869L59.571 70.25H61.209L61.976 67.221H64.212L64.966 70.25ZM60.507 68.586H60.468L59.831 65.57L59.727 65.128H61.339L61.235 65.57L60.507 68.586ZM65.759 68.573L65.031 65.544L64.927 65.115H66.552L66.448 65.583L65.798 68.573H65.759ZM62.366 65.687L63.094 62.736H63.12L63.835 65.7L63.978 66.272H62.223L62.366 65.687ZM73.4215 70.406C75.5275 70.406 76.6715 69.275 76.6715 67.78C76.6715 66.571 75.9435 65.843 74.8515 65.544V65.44C75.7875 65.115 76.3985 64.387 76.3985 63.347C76.3985 61.956 75.3065 61.02 73.4215 61.02C71.5365 61.02 70.4445 61.956 70.4445 63.347C70.4445 64.387 71.0555 65.115 71.9915 65.44V65.544C70.8995 65.843 70.1715 66.571 70.1715 67.78C70.1715 69.275 71.3155 70.406 73.4215 70.406ZM73.4215 69.223C72.3295 69.223 71.7055 68.69 71.7055 67.793V67.533C71.7055 66.636 72.3295 66.103 73.4215 66.103C74.5135 66.103 75.1375 66.636 75.1375 67.533V67.793C75.1375 68.69 74.5135 69.223 73.4215 69.223ZM73.4215 64.972C72.4205 64.972 71.8745 64.53 71.8745 63.698V63.477C71.8745 62.645 72.4205 62.203 73.4215 62.203C74.4225 62.203 74.9685 62.645 74.9685 63.477V63.698C74.9685 64.53 74.4225 64.972 73.4215 64.972ZM81.2164 70.406C83.4654 70.406 84.5054 68.677 84.5054 65.713C84.5054 62.749 83.4654 61.02 81.2164 61.02C78.9544 61.02 77.9274 62.749 77.9274 65.713C77.9274 68.677 78.9544 70.406 81.2164 70.406ZM81.2164 69.158C79.9554 69.158 79.4874 68.105 79.4874 66.506V64.92C79.4874 63.321 79.9554 62.268 81.2164 62.268C82.4774 62.268 82.9454 63.321 82.9454 64.92V66.506C82.9454 68.105 82.4774 69.158 81.2164 69.158ZM86.9963 68.443C86.3593 68.443 86.0473 68.807 86.0473 69.327V69.535C86.0473 69.951 86.2683 70.276 86.7233 70.367C86.5283 71.004 86.1773 71.485 85.6183 72.044H86.6713C87.4513 71.407 87.9453 70.38 87.9453 69.535V69.327C87.9453 68.807 87.6333 68.443 86.9963 68.443ZM92.7818 70.406C95.0308 70.406 96.0708 68.677 96.0708 65.713C96.0708 62.749 95.0308 61.02 92.7818 61.02C90.5198 61.02 89.4928 62.749 89.4928 65.713C89.4928 68.677 90.5198 70.406 92.7818 70.406ZM92.7818 69.158C91.5208 69.158 91.0528 68.105 91.0528 66.506V64.92C91.0528 63.321 91.5208 62.268 92.7818 62.268C94.0428 62.268 94.5108 63.321 94.5108 64.92V66.506C94.5108 68.105 94.0428 69.158 92.7818 69.158ZM100.577 70.406C102.826 70.406 103.866 68.677 103.866 65.713C103.866 62.749 102.826 61.02 100.577 61.02C98.3148 61.02 97.2878 62.749 97.2878 65.713C97.2878 68.677 98.3148 70.406 100.577 70.406ZM100.577 69.158C99.3158 69.158 98.8478 68.105 98.8478 66.506V64.92C98.8478 63.321 99.3158 62.268 100.577 62.268C101.838 62.268 102.306 63.321 102.306 64.92V66.506C102.306 68.105 101.838 69.158 100.577 69.158ZM108.372 70.406C110.621 70.406 111.661 68.677 111.661 65.713C111.661 62.749 110.621 61.02 108.372 61.02C106.11 61.02 105.083 62.749 105.083 65.713C105.083 68.677 106.11 70.406 108.372 70.406ZM108.372 69.158C107.111 69.158 106.643 68.105 106.643 66.506V64.92C106.643 63.321 107.111 62.268 108.372 62.268C109.633 62.268 110.101 63.321 110.101 64.92V66.506C110.101 68.105 109.633 69.158 108.372 69.158ZM116.652 72.213L120.253 60.63H119.031L115.43 72.213H116.652ZM130.267 65.882V66.779H132.919V67.156H134.232V60.201H132.919V65.882H130.267ZM128.057 64.01C129.773 64.01 130.982 63.308 130.982 62.125C130.982 60.955 129.773 60.266 128.057 60.266C126.315 60.266 125.106 60.955 125.106 62.125C125.106 63.308 126.315 64.01 128.057 64.01ZM126.419 62.099C126.419 61.475 127.056 61.124 128.057 61.124C129.032 61.124 129.669 61.475 129.669 62.099V62.177C129.669 62.801 129.032 63.126 128.057 63.126C127.056 63.126 126.419 62.801 126.419 62.177V62.099ZM127.342 67.182H128.603V65.518C129.916 65.44 131.138 65.323 132.113 65.167L132.009 64.231C130.098 64.504 127.121 64.621 124.326 64.621L124.43 65.635C125.405 65.635 126.38 65.622 127.342 65.583V67.182ZM127.94 71.16V70.38H134.232V67.611H126.614V68.612H132.984V69.379H126.692V71.316C126.692 71.875 126.991 72.174 127.537 72.174H134.505V71.16H127.94Z" fill="#95979F"/>
<path d="M53.974 103.226H46.054L49.174 100.778C51.55 98.858 53.638 97.154 53.638 94.25C53.638 91.37 51.55 89.21 47.926 89.21C44.422 89.21 42.526 91.154 41.758 93.482L44.902 94.682C45.214 93.434 46.006 92.33 47.59 92.33C48.67 92.33 49.798 92.978 49.798 94.25V94.586C49.798 95.978 49.126 96.938 47.278 98.546L42.118 102.962V106.25H53.974V103.226ZM66.6606 106.25V103.034H68.7726V100.25H66.6606V89.498H62.3886L55.8606 99.962V103.034H63.2286V106.25H66.6606ZM62.9886 93.218H63.2286V100.25H58.7406L62.9886 93.218ZM76.7313 106.538C81.1233 106.538 83.1873 103.346 83.1873 97.874C83.1873 92.402 81.1233 89.21 76.7313 89.21C72.3393 89.21 70.2753 92.402 70.2753 97.874C70.2753 103.346 72.3393 106.538 76.7313 106.538ZM76.7313 103.49C74.8113 103.49 74.1873 102.026 74.1873 99.458V96.29C74.1873 93.722 74.8113 92.258 76.7313 92.258C78.6513 92.258 79.2753 93.722 79.2753 96.29V99.458C79.2753 102.026 78.6513 103.49 76.7313 103.49ZM87.6899 102.194C86.2499 102.194 85.5779 102.986 85.5779 104.114V104.594C85.5779 105.53 86.0579 106.274 87.1859 106.466C86.7779 107.738 85.9619 108.722 84.8339 109.778H87.2339C88.7699 108.602 89.8019 106.538 89.8019 104.594V104.114C89.8019 102.986 89.1299 102.194 87.6899 102.194ZM98.5516 106.538C102.944 106.538 105.008 103.346 105.008 97.874C105.008 92.402 102.944 89.21 98.5516 89.21C94.1596 89.21 92.0956 92.402 92.0956 97.874C92.0956 103.346 94.1596 106.538 98.5516 106.538ZM98.5516 103.49C96.6316 103.49 96.0076 102.026 96.0076 99.458V96.29C96.0076 93.722 96.6316 92.258 98.5516 92.258C100.472 92.258 101.096 93.722 101.096 96.29V99.458C101.096 102.026 100.472 103.49 98.5516 103.49ZM112.942 106.538C117.334 106.538 119.398 103.346 119.398 97.874C119.398 92.402 117.334 89.21 112.942 89.21C108.55 89.21 106.486 92.402 106.486 97.874C106.486 103.346 108.55 106.538 112.942 106.538ZM112.942 103.49C111.022 103.49 110.398 102.026 110.398 99.458V96.29C110.398 93.722 111.022 92.258 112.942 92.258C114.862 92.258 115.486 93.722 115.486 96.29V99.458C115.486 102.026 114.862 103.49 112.942 103.49ZM127.333 106.538C131.725 106.538 133.789 103.346 133.789 97.874C133.789 92.402 131.725 89.21 127.333 89.21C122.941 89.21 120.877 92.402 120.877 97.874C120.877 103.346 122.941 106.538 127.333 106.538ZM127.333 103.49C125.413 103.49 124.789 102.026 124.789 99.458V96.29C124.789 93.722 125.413 92.258 127.333 92.258C129.253 92.258 129.877 93.722 129.877 96.29V99.458C129.877 102.026 129.253 103.49 127.333 103.49Z" fill="#95979F"/>
<path d="M143.638 100.708V102.08H146.242V103.382H148.104V93.344H146.242V100.708H143.638ZM141.286 98.356C143.218 98.356 144.548 97.418 144.548 95.948C144.548 94.492 143.218 93.568 141.286 93.568C139.354 93.568 138.024 94.492 138.024 95.948C138.024 97.418 139.354 98.356 141.286 98.356ZM139.9 95.892C139.9 95.29 140.432 94.94 141.286 94.94C142.14 94.94 142.672 95.29 142.672 95.892V96.032C142.672 96.62 142.14 96.97 141.286 96.97C140.432 96.97 139.9 96.62 139.9 96.032V95.892ZM140.32 102.332H142.126V100.302C143.428 100.218 144.618 100.106 145.57 99.966L145.402 98.566C143.47 98.832 140.236 98.958 137.198 98.958L137.338 100.456C138.332 100.456 139.34 100.442 140.32 100.4V102.332ZM141.636 104.516V102.682H139.774V104.838C139.774 105.622 140.18 106.028 140.964 106.028H148.356V104.516H141.636Z" fill="#95979F"/>
<path d="M71.08 124.13C71.08 126.07 71.9 127.79 72.89 128.62H73.65C72.56 127.66 71.83 125.97 71.83 124.57V123.71C71.83 122.31 72.54 120.65 73.65 119.65H72.89C71.88 120.53 71.08 122.2 71.08 124.13ZM80.9496 119.78H80.1996V121.1H75.9196V119.78H75.1696V123.69H80.9496V119.78ZM80.1996 123.06H75.9196V121.73H80.1996V123.06ZM82.1396 124.77H73.9796V125.42H77.6796V128.59H78.4396V125.42H82.1396V124.77ZM91.3156 122.98H89.8756V119.58H89.1156V128.26H89.8756V123.62H91.3156V122.98ZM83.3256 120.92H86.4556V121.67C86.4556 123.55 85.7456 124.45 83.0756 125.86L83.5256 126.43C86.3656 124.89 87.2156 123.84 87.2156 121.66V120.27H83.3256V120.92ZM98.7816 119.56V128.24H99.5216V119.56H98.7816ZM96.7816 122.57H95.3916V123.21H96.7816V128H97.5116V119.71H96.7816V122.57ZM94.1516 123.23L94.0416 123.32L94.0116 123.29C94.2016 122.65 94.2916 121.98 94.2916 121.16V120.27H93.5616V121.17C93.5616 122.97 93.1316 123.95 91.7116 125.84L92.2516 126.31C93.0316 125.27 93.5316 124.52 93.8316 123.74C93.8716 123.65 93.9616 123.65 94.0116 123.73L95.6116 126.16L96.1816 125.68L94.5516 123.28C94.4616 123.13 94.2916 123.12 94.1516 123.23ZM107.458 124.14H108.218V119.56H107.458V120.67H105.498V121.27H107.458V122.43H105.498V123.03H107.458V124.14ZM105.188 119.86H104.468V121.21H101.888V119.87H101.168V123.82H105.188V119.86ZM104.468 123.21H101.888V121.82H104.468V123.21ZM103.418 128V126.98H108.218V124.68H102.588V125.33H107.448V126.34H102.648V128.14C102.648 128.47 102.828 128.65 103.148 128.65H108.458V128H103.418ZM114.104 126.61V124.3H116.744V123.65H111.584V120.8H116.654V120.15H110.824V124.3H113.344V126.61H109.644V127.25H117.804V126.61H114.104ZM120.7 124.13C120.7 122.2 119.9 120.53 118.89 119.65H118.13C119.24 120.65 119.95 122.31 119.95 123.71V124.57C119.95 125.97 119.22 127.66 118.13 128.62H118.89C119.88 127.79 120.7 126.07 120.7 124.13Z" fill="#95979F"/>
</g>
<path d="M188.981 84.5001H181.25H181.25H188.981ZM188.981 84.5001L186.122 81.776C186.121 81.7757 186.121 81.7755 186.121 81.7752C186 81.6607 185.903 81.523 185.836 81.3703C185.769 81.2174 185.734 81.0525 185.732 80.8855C185.73 80.7185 185.761 80.5528 185.825 80.3983C185.888 80.2442 185.981 80.1043 186.1 79.9869C186.1 79.9866 186.1 79.9863 186.101 79.986L186.792 79.295C186.792 79.2948 186.792 79.2946 186.792 79.2944C186.908 79.1781 187.046 79.0859 187.197 79.0228L187.389 79.4845L187.197 79.0228C187.349 78.9597 187.511 78.9272 187.676 78.9272C187.84 78.9272 188.003 78.9597 188.155 79.0228C188.306 79.0858 188.444 79.178 188.559 79.2942C188.559 79.2945 188.56 79.2947 188.56 79.295L194.632 85.3642C194.632 85.3644 194.633 85.3645 194.633 85.3647C194.749 85.4805 194.841 85.6181 194.904 85.7696C194.968 85.9213 195 86.0841 195 86.2484C195 86.4127 194.968 86.5755 194.904 86.7272C194.841 86.8787 194.749 87.0162 194.633 87.1319C194.633 87.1322 194.632 87.1324 194.632 87.1326L188.56 93.2048C188.56 93.2051 188.559 93.2054 188.559 93.2056C188.444 93.3218 188.306 93.414 188.155 93.477C188.003 93.5401 187.84 93.5726 187.676 93.5726C187.511 93.5726 187.349 93.5401 187.197 93.477C187.046 93.414 186.908 93.3217 186.792 93.2054C186.792 93.2052 186.792 93.205 186.792 93.2048L186.099 92.5124L186.098 92.5115C185.981 92.3937 185.888 92.2537 185.826 92.0997C185.763 91.9456 185.732 91.7807 185.734 91.6145C185.736 91.4483 185.771 91.2841 185.837 91.1316L186.296 91.3305L185.837 91.1316C185.903 90.9791 185.999 90.8413 186.119 90.7263L186.12 90.7252L188.981 87.9997H181.25L188.981 84.5001ZM180 85.7505V86.7493V86.7498V85.7505Z" fill="url(#paint0_linear)"/>
<path d="M188.981 84.5001H181.25H181.25H188.981ZM188.981 84.5001L186.122 81.776C186.121 81.7757 186.121 81.7755 186.121 81.7752C186 81.6607 185.903 81.523 185.836 81.3703C185.769 81.2174 185.734 81.0525 185.732 80.8855C185.73 80.7185 185.761 80.5528 185.825 80.3983C185.888 80.2442 185.981 80.1043 186.1 79.9869C186.1 79.9866 186.1 79.9863 186.101 79.986L186.792 79.295C186.792 79.2948 186.792 79.2946 186.792 79.2944C186.908 79.1781 187.046 79.0859 187.197 79.0228L187.389 79.4845L187.197 79.0228C187.349 78.9597 187.511 78.9272 187.676 78.9272C187.84 78.9272 188.003 78.9597 188.155 79.0228C188.306 79.0858 188.444 79.178 188.559 79.2942C188.559 79.2945 188.56 79.2947 188.56 79.295L194.632 85.3642C194.632 85.3644 194.633 85.3645 194.633 85.3647C194.749 85.4805 194.841 85.6181 194.904 85.7696C194.968 85.9213 195 86.0841 195 86.2484C195 86.4127 194.968 86.5755 194.904 86.7272C194.841 86.8787 194.749 87.0162 194.633 87.1319C194.633 87.1322 194.632 87.1324 194.632 87.1326L188.56 93.2048C188.56 93.2051 188.559 93.2054 188.559 93.2056C188.444 93.3218 188.306 93.414 188.155 93.477C188.003 93.5401 187.84 93.5726 187.676 93.5726C187.511 93.5726 187.349 93.5401 187.197 93.477C187.046 93.414 186.908 93.3217 186.792 93.2054C186.792 93.2052 186.792 93.205 186.792 93.2048L186.099 92.5124L186.098 92.5115C185.981 92.3937 185.888 92.2537 185.826 92.0997C185.763 91.9456 185.732 91.7807 185.734 91.6145C185.736 91.4483 185.771 91.2841 185.837 91.1316L186.296 91.3305L185.837 91.1316C185.903 90.9791 185.999 90.8413 186.119 90.7263L186.12 90.7252L188.981 87.9997H181.25L188.981 84.5001ZM180 85.7505V86.7493V86.7498V85.7505Z" fill="url(#paint1_linear)"/>
<path d="M188.981 84.5001H181.25H181.25H188.981ZM188.981 84.5001L186.122 81.776C186.121 81.7757 186.121 81.7755 186.121 81.7752C186 81.6607 185.903 81.523 185.836 81.3703C185.769 81.2174 185.734 81.0525 185.732 80.8855C185.73 80.7185 185.761 80.5528 185.825 80.3983C185.888 80.2442 185.981 80.1043 186.1 79.9869C186.1 79.9866 186.1 79.9863 186.101 79.986L186.792 79.295C186.792 79.2948 186.792 79.2946 186.792 79.2944C186.908 79.1781 187.046 79.0859 187.197 79.0228L187.389 79.4845L187.197 79.0228C187.349 78.9597 187.511 78.9272 187.676 78.9272C187.84 78.9272 188.003 78.9597 188.155 79.0228C188.306 79.0858 188.444 79.178 188.559 79.2942C188.559 79.2945 188.56 79.2947 188.56 79.295L194.632 85.3642C194.632 85.3644 194.633 85.3645 194.633 85.3647C194.749 85.4805 194.841 85.6181 194.904 85.7696C194.968 85.9213 195 86.0841 195 86.2484C195 86.4127 194.968 86.5755 194.904 86.7272C194.841 86.8787 194.749 87.0162 194.633 87.1319C194.633 87.1322 194.632 87.1324 194.632 87.1326L188.56 93.2048C188.56 93.2051 188.559 93.2054 188.559 93.2056C188.444 93.3218 188.306 93.414 188.155 93.477C188.003 93.5401 187.84 93.5726 187.676 93.5726C187.511 93.5726 187.349 93.5401 187.197 93.477C187.046 93.414 186.908 93.3217 186.792 93.2054C186.792 93.2052 186.792 93.205 186.792 93.2048L186.099 92.5124L186.098 92.5115C185.981 92.3937 185.888 92.2537 185.826 92.0997C185.763 91.9456 185.732 91.7807 185.734 91.6145C185.736 91.4483 185.771 91.2841 185.837 91.1316L186.296 91.3305L185.837 91.1316C185.903 90.9791 185.999 90.8413 186.119 90.7263L186.12 90.7252L188.981 87.9997H181.25L188.981 84.5001ZM180 85.7505V86.7493V86.7498V85.7505Z" stroke="url(#paint2_linear)"/>
<path d="M188.981 84.5001H181.25H181.25H188.981ZM188.981 84.5001L186.122 81.776C186.121 81.7757 186.121 81.7755 186.121 81.7752C186 81.6607 185.903 81.523 185.836 81.3703C185.769 81.2174 185.734 81.0525 185.732 80.8855C185.73 80.7185 185.761 80.5528 185.825 80.3983C185.888 80.2442 185.981 80.1043 186.1 79.9869C186.1 79.9866 186.1 79.9863 186.101 79.986L186.792 79.295C186.792 79.2948 186.792 79.2946 186.792 79.2944C186.908 79.1781 187.046 79.0859 187.197 79.0228L187.389 79.4845L187.197 79.0228C187.349 78.9597 187.511 78.9272 187.676 78.9272C187.84 78.9272 188.003 78.9597 188.155 79.0228C188.306 79.0858 188.444 79.178 188.559 79.2942C188.559 79.2945 188.56 79.2947 188.56 79.295L194.632 85.3642C194.632 85.3644 194.633 85.3645 194.633 85.3647C194.749 85.4805 194.841 85.6181 194.904 85.7696C194.968 85.9213 195 86.0841 195 86.2484C195 86.4127 194.968 86.5755 194.904 86.7272C194.841 86.8787 194.749 87.0162 194.633 87.1319C194.633 87.1322 194.632 87.1324 194.632 87.1326L188.56 93.2048C188.56 93.2051 188.559 93.2054 188.559 93.2056C188.444 93.3218 188.306 93.414 188.155 93.477C188.003 93.5401 187.84 93.5726 187.676 93.5726C187.511 93.5726 187.349 93.5401 187.197 93.477C187.046 93.414 186.908 93.3217 186.792 93.2054C186.792 93.2052 186.792 93.205 186.792 93.2048L186.099 92.5124L186.098 92.5115C185.981 92.3937 185.888 92.2537 185.826 92.0997C185.763 91.9456 185.732 91.7807 185.734 91.6145C185.736 91.4483 185.771 91.2841 185.837 91.1316L186.296 91.3305L185.837 91.1316C185.903 90.9791 185.999 90.8413 186.119 90.7263L186.12 90.7252L188.981 87.9997H181.25L188.981 84.5001ZM180 85.7505V86.7493V86.7498V85.7505Z" stroke="url(#paint3_linear)"/>
<g filter="url(#filter1_d)">
<rect x="202.5" y="10" width="152.5" height="152.5" rx="8" fill="white"/>
<path d="M264.1 48.23V48.96H264.92C265.91 48.96 266.42 49.42 266.42 50.25V50.33C266.42 51.16 265.91 51.62 264.92 51.62C264.08 51.62 263.65 51.26 263.3 50.7L262.67 51.18C263.09 51.78 263.73 52.37 264.93 52.37C266.35 52.37 267.3 51.54 267.3 50.34C267.3 49.29 266.58 48.74 265.83 48.58V48.54C266.58 48.35 267.17 47.81 267.17 46.91C267.17 45.78 266.23 45.15 265.05 45.15C263.93 45.15 263.32 45.73 262.97 46.29L263.59 46.77C263.88 46.24 264.31 45.9 265.03 45.9C265.78 45.9 266.28 46.27 266.28 47V47.07C266.28 47.75 265.81 48.23 264.86 48.23H264.1ZM275.596 44.56V47.95H274.256V44.71H273.516V53H274.256V48.58H275.596V53.24H276.336V44.56H275.596ZM269.096 46.07H271.666V46.83C271.666 48.64 271.076 49.49 268.866 50.9L269.356 51.42C271.696 49.87 272.416 48.9 272.416 46.81V45.45H269.096V46.07ZM282.132 48.92V49.45H284.322V49.86H285.072V44.56H284.322V48.92H282.132ZM280.412 47.41C281.722 47.41 282.652 46.89 282.652 45.99C282.652 45.09 281.722 44.58 280.412 44.58C279.092 44.58 278.162 45.09 278.162 45.99C278.162 46.89 279.092 47.41 280.412 47.41ZM278.922 45.95C278.922 45.4 279.522 45.09 280.412 45.09C281.302 45.09 281.892 45.4 281.892 45.95V46.03C281.892 46.58 281.302 46.89 280.412 46.89C279.522 46.89 278.922 46.58 278.922 46.03V45.95ZM279.982 49.9H280.722V48.52C281.792 48.46 282.782 48.36 283.592 48.24L283.522 47.68C282.002 47.91 279.732 48.01 277.582 48.01L277.642 48.6C278.422 48.6 279.212 48.58 279.982 48.55V49.9ZM280.102 53.08V52.25H285.072V50.26H279.322V50.84H284.352V51.67H279.382V53.17C279.382 53.5 279.562 53.68 279.882 53.68H285.312V53.08H280.102ZM293.498 47.19V44.56H292.738V51.15H293.498V47.83H294.888V47.19H293.498ZM290.758 46.15V45.15H286.888V45.8H289.998V46.22C289.998 47.61 289.298 48.26 286.638 49.35L287.048 49.93C289.938 48.73 290.758 47.95 290.758 46.15ZM288.808 50.43H288.048V52.92C288.048 53.25 288.228 53.43 288.548 53.43H293.698V52.8H288.808V50.43Z" fill="#95979F"/>
<path d="M247.466 70.25H249.104L249.858 67.234H251.535V66.233H250.105L250.365 65.141H251.535V64.14H250.612L251.353 61.176H249.923L249.26 64.166H247.193L246.465 61.176H244.827L244.073 64.179H242.032L241.395 61.176H239.939L240.641 64.153H239.731V65.154H240.875L241.122 66.233H239.731V67.234H241.369L242.071 70.25H243.709L244.476 67.221H246.712L247.466 70.25ZM243.007 68.586H242.968L242.331 65.57L242.227 65.128H243.839L243.735 65.57L243.007 68.586ZM248.259 68.573L247.531 65.544L247.427 65.115H249.052L248.948 65.583L248.298 68.573H248.259ZM244.866 65.687L245.594 62.736H245.62L246.335 65.7L246.478 66.272H244.723L244.866 65.687ZM255.921 70.406C258.027 70.406 259.171 69.275 259.171 67.78C259.171 66.571 258.443 65.843 257.351 65.544V65.44C258.287 65.115 258.898 64.387 258.898 63.347C258.898 61.956 257.806 61.02 255.921 61.02C254.036 61.02 252.944 61.956 252.944 63.347C252.944 64.387 253.555 65.115 254.491 65.44V65.544C253.399 65.843 252.671 66.571 252.671 67.78C252.671 69.275 253.815 70.406 255.921 70.406ZM255.921 69.223C254.829 69.223 254.205 68.69 254.205 67.793V67.533C254.205 66.636 254.829 66.103 255.921 66.103C257.013 66.103 257.637 66.636 257.637 67.533V67.793C257.637 68.69 257.013 69.223 255.921 69.223ZM255.921 64.972C254.92 64.972 254.374 64.53 254.374 63.698V63.477C254.374 62.645 254.92 62.203 255.921 62.203C256.922 62.203 257.468 62.645 257.468 63.477V63.698C257.468 64.53 256.922 64.972 255.921 64.972ZM263.716 70.406C265.965 70.406 267.005 68.677 267.005 65.713C267.005 62.749 265.965 61.02 263.716 61.02C261.454 61.02 260.427 62.749 260.427 65.713C260.427 68.677 261.454 70.406 263.716 70.406ZM263.716 69.158C262.455 69.158 261.987 68.105 261.987 66.506V64.92C261.987 63.321 262.455 62.268 263.716 62.268C264.977 62.268 265.445 63.321 265.445 64.92V66.506C265.445 68.105 264.977 69.158 263.716 69.158ZM269.496 68.443C268.859 68.443 268.547 68.807 268.547 69.327V69.535C268.547 69.951 268.768 70.276 269.223 70.367C269.028 71.004 268.677 71.485 268.118 72.044H269.171C269.951 71.407 270.445 70.38 270.445 69.535V69.327C270.445 68.807 270.133 68.443 269.496 68.443ZM275.282 70.406C277.531 70.406 278.571 68.677 278.571 65.713C278.571 62.749 277.531 61.02 275.282 61.02C273.02 61.02 271.993 62.749 271.993 65.713C271.993 68.677 273.02 70.406 275.282 70.406ZM275.282 69.158C274.021 69.158 273.553 68.105 273.553 66.506V64.92C273.553 63.321 274.021 62.268 275.282 62.268C276.543 62.268 277.011 63.321 277.011 64.92V66.506C277.011 68.105 276.543 69.158 275.282 69.158ZM283.077 70.406C285.326 70.406 286.366 68.677 286.366 65.713C286.366 62.749 285.326 61.02 283.077 61.02C280.815 61.02 279.788 62.749 279.788 65.713C279.788 68.677 280.815 70.406 283.077 70.406ZM283.077 69.158C281.816 69.158 281.348 68.105 281.348 66.506V64.92C281.348 63.321 281.816 62.268 283.077 62.268C284.338 62.268 284.806 63.321 284.806 64.92V66.506C284.806 68.105 284.338 69.158 283.077 69.158ZM290.872 70.406C293.121 70.406 294.161 68.677 294.161 65.713C294.161 62.749 293.121 61.02 290.872 61.02C288.61 61.02 287.583 62.749 287.583 65.713C287.583 68.677 288.61 70.406 290.872 70.406ZM290.872 69.158C289.611 69.158 289.143 68.105 289.143 66.506V64.92C289.143 63.321 289.611 62.268 290.872 62.268C292.133 62.268 292.601 63.321 292.601 64.92V66.506C292.601 68.105 292.133 69.158 290.872 69.158ZM299.152 72.213L302.753 60.63H301.531L297.93 72.213H299.152ZM312.767 65.882V66.779H315.419V67.156H316.732V60.201H315.419V65.882H312.767ZM310.557 64.01C312.273 64.01 313.482 63.308 313.482 62.125C313.482 60.955 312.273 60.266 310.557 60.266C308.815 60.266 307.606 60.955 307.606 62.125C307.606 63.308 308.815 64.01 310.557 64.01ZM308.919 62.099C308.919 61.475 309.556 61.124 310.557 61.124C311.532 61.124 312.169 61.475 312.169 62.099V62.177C312.169 62.801 311.532 63.126 310.557 63.126C309.556 63.126 308.919 62.801 308.919 62.177V62.099ZM309.842 67.182H311.103V65.518C312.416 65.44 313.638 65.323 314.613 65.167L314.509 64.231C312.598 64.504 309.621 64.621 306.826 64.621L306.93 65.635C307.905 65.635 308.88 65.622 309.842 65.583V67.182ZM310.44 71.16V70.38H316.732V67.611H309.114V68.612H315.484V69.379H309.192V71.316C309.192 71.875 309.491 72.174 310.037 72.174H317.005V71.16H310.44Z" fill="#95979F"/>
<path d="M270.25 114.73C277.57 114.73 281.01 109.41 281.01 100.29C281.01 91.17 277.57 85.85 270.25 85.85C262.93 85.85 259.49 91.17 259.49 100.29C259.49 109.41 262.93 114.73 270.25 114.73ZM270.25 109.65C267.05 109.65 266.01 107.21 266.01 102.93V97.65C266.01 93.37 267.05 90.93 270.25 90.93C273.45 90.93 274.49 93.37 274.49 97.65V102.93C274.49 107.21 273.45 109.65 270.25 109.65ZM291.09 109.696V111.46H294.438V113.134H296.832V100.228H294.438V109.696H291.09ZM288.066 106.672C290.55 106.672 292.26 105.466 292.26 103.576C292.26 101.704 290.55 100.516 288.066 100.516C285.582 100.516 283.872 101.704 283.872 103.576C283.872 105.466 285.582 106.672 288.066 106.672ZM286.284 103.504C286.284 102.73 286.968 102.28 288.066 102.28C289.164 102.28 289.848 102.73 289.848 103.504V103.684C289.848 104.44 289.164 104.89 288.066 104.89C286.968 104.89 286.284 104.44 286.284 103.684V103.504ZM286.824 111.784H289.146V109.174C290.82 109.066 292.35 108.922 293.574 108.742L293.358 106.942C290.874 107.284 286.716 107.446 282.81 107.446L282.99 109.372C284.268 109.372 285.564 109.354 286.824 109.3V111.784ZM288.516 114.592V112.234H286.122V115.006C286.122 116.014 286.644 116.536 287.652 116.536H297.156V114.592H288.516Z" fill="#8244FF"/>
</g>
<defs>
<filter id="filter0_d" x="13" y="5" width="166.5" height="166.5" filterUnits="userSpaceOnUse" color-interpolation-filters="sRGB">
<feFlood flood-opacity="0" result="BackgroundImageFix"/>
<feColorMatrix in="SourceAlpha" type="matrix" values="0 0 0 0 0 0 0 0 0 0 0 0 0 0 0 0 0 0 127 0" result="hardAlpha"/>
<feOffset dy="2"/>
<feGaussianBlur stdDeviation="3.5"/>
<feColorMatrix type="matrix" values="0 0 0 0 0.133333 0 0 0 0 0.0196078 0 0 0 0 0.333333 0 0 0 0.12 0"/>
<feBlend mode="normal" in2="BackgroundImageFix" result="effect1_dropShadow"/>
<feBlend mode="normal" in="SourceGraphic" in2="effect1_dropShadow" result="shape"/>
</filter>
<filter id="filter1_d" x="195.5" y="5" width="166.5" height="166.5" filterUnits="userSpaceOnUse" color-interpolation-filters="sRGB">
<feFlood flood-opacity="0" result="BackgroundImageFix"/>
<feColorMatrix in="SourceAlpha" type="matrix" values="0 0 0 0 0 0 0 0 0 0 0 0 0 0 0 0 0 0 127 0" result="hardAlpha"/>
<feOffset dy="2"/>
<feGaussianBlur stdDeviation="3.5"/>
<feColorMatrix type="matrix" values="0 0 0 0 0.133333 0 0 0 0 0.0196078 0 0 0 0 0.333333 0 0 0 0.12 0"/>
<feBlend mode="normal" in2="BackgroundImageFix" result="effect1_dropShadow"/>
<feBlend mode="normal" in="SourceGraphic" in2="effect1_dropShadow" result="shape"/>
</filter>
<linearGradient id="paint0_linear" x1="187.5" y1="79.4272" x2="187.5" y2="93.0726" gradientUnits="userSpaceOnUse">
<stop stop-color="#A14CEA"/>
<stop offset="1" stop-color="#5D00FF"/>
</linearGradient>
<linearGradient id="paint1_linear" x1="175.824" y1="83.7938" x2="193.184" y2="92.2441" gradientUnits="userSpaceOnUse">
<stop stop-color="#A14CEA" stop-opacity="0"/>
<stop offset="1" stop-color="#867FF4"/>
</linearGradient>
<linearGradient id="paint2_linear" x1="187.5" y1="79.4272" x2="187.5" y2="93.0726" gradientUnits="userSpaceOnUse">
<stop stop-color="#A14CEA"/>
<stop offset="1" stop-color="#5D00FF"/>
</linearGradient>
<linearGradient id="paint3_linear" x1="175.824" y1="83.7938" x2="193.184" y2="92.2441" gradientUnits="userSpaceOnUse">
<stop stop-color="#A14CEA" stop-opacity="0"/>
<stop offset="1" stop-color="#867FF4"/>
</linearGradient>
</defs>
</svg>
