<svg width="3067" height="640" viewBox="0 0 3067 640" fill="none" xmlns="http://www.w3.org/2000/svg">
<g opacity="0.4">
<mask id="mask0" style="mask-type:alpha" maskUnits="userSpaceOnUse" x="0" y="0" width="3067" height="640">
<rect x="3067" y="640" width="3067" height="640" transform="rotate(-180 3067 640)" fill="#C4C4C4"/>
</mask>
<g mask="url(#mask0)">
<path d="M699.97 93.3003C755.73 124.81 938.07 9.87026 1023.23 2.58027C1258.23 -17.4197 1150.23 120.94 1296.14 108.58C1371.2 102.21 1433.14 99.0103 1464.2 114.74C1539.54 152.91 1422.59 197.63 1524.81 204.96C1591.71 207.27 1595.93 38.0204 1907.81 51.1304C2081.98 58.4604 2110.81 154.65 2203.38 145.59C2333.51 132.86 2288.25 36.5904 2416.74 56.1404C2507.29 69.9204 2577.56 161.67 2639.57 169.35C2708.87 177.96 2818.03 127.63 2887.77 130.54C2960.28 133.64 3067 169.89 3067 169.89L3066.43 727L-0.110107 727L-0.110059 169.89C-0.110059 169.89 160.89 217.44 301.68 137.72C343.59 113.99 448.41 -19.8998 602.9 39.7202C633.23 51.3702 664.74 73.3803 699.97 93.3003Z" fill="url(#paint0_linear)"/>
<g opacity="0.8">
<path opacity="0.8" d="M915.07 533.46C1039.79 558.89 980.32 565.6 1027.32 659.29C1041.32 687.29 1153.46 793.84 1173.32 813.95C1229.94 871.36 1327.71 802.311 1383.39 851.211C1418.89 882.411 1499.02 777.891 1593.54 763.211C1642.14 755.651 1670.54 727.531 1706.54 694.211C1781.69 624.591 1874.16 650.691 1972.54 587.211C2056.46 533.021 2066.88 453.741 2008.8 398.691C1941.98 335.371 1850.18 337.311 1733.61 315.261C1630.9 295.821 1627.02 217.071 1553.17 144.261C1502.17 93.9705 1426.26 85.9905 1350.81 103.63C1252.23 126.7 1152.5 71.4605 1090.68 123.33C1022.35 180.62 956.6 183.33 896.42 194.33C710.3 228.48 780.6 506.03 915.07 533.46Z" fill="url(#paint1_linear)"/>
</g>
<path opacity="0.6" d="M2454.49 417.81C2443.71 405.11 2432.49 392.66 2421.49 380.17C2344.6 293.88 2420.39 230.46 2363.52 189.03C2325.79 161.55 2241.77 186.03 2248.68 138.09C2263.99 31.6703 2157.2 16.0303 2081.54 50.1703C2042.96 67.5703 2029.01 86.8803 1986.39 120.58C1921.16 172.16 1863.19 94.7603 1766.32 75.3703C1674.5 56.9903 1611.23 108.01 1621.32 169.32C1637.04 265.09 1771.43 273.14 1777.93 361.97C1789.51 520.78 1861.34 482.34 1975.93 517.61C2075.45 548.26 2082.1 619.48 2146.67 671.03C2196.24 715.36 2253.67 732.8 2321.67 725.35C2495.95 706.32 2554.53 535.9 2454.49 417.81Z" fill="url(#paint2_linear)"/>
<path opacity="0.4" d="M878.99 737.18C919.27 717.02 927.07 730.24 1032.15 753.18C1142.86 777.31 1265.69 704.95 1263.94 587.71C1263.35 547.71 1251.94 518.54 1244.58 474.05C1232.97 404.05 1277.85 370.05 1314.51 335.88C1354.51 298.63 1466.7 216.67 1385.3 90.4103C1338.3 17.5403 1245.59 -22.2897 1147.49 13.2203C1093.95 32.6103 1052.1 66.0803 1006.41 97.8903C847.29 208.61 850.73 194.73 650.27 231.89C651.73 236.44 642.65 233.89 615.62 244.07C490.14 291.18 600.3 350.52 550.88 444.86C490.23 560.6 351.98 641.37 485.36 770.94C583.97 866.64 807.32 773.03 878.99 737.18Z" fill="url(#paint3_linear)"/>
<path opacity="0.6" d="M430.66 419.89C418.66 408.35 406.27 397.09 393.98 385.79C308.82 307.72 377.77 236.95 316.98 201.51C276.69 178.03 195.6 210.8 197.6 162.46C202.06 55.0104 94.2403 50.2803 22.4303 91.8903C-14.1897 113.1 -26.1197 133.72 -65.1097 171.57C-124.78 229.47 -190.29 158.34 -288.62 148.85C-381.84 139.85 -439.62 197.03 -423.39 257C-398.06 350.69 -263.54 345.09 -248.09 432.81C-220.49 589.64 -152.92 544.12 -35.3497 567.61C66.7703 588.03 80.6002 658.21 150.05 702.94C203.85 742.03 262.79 753.57 329.69 739.27C501.1 702.72 542.14 527.25 430.66 419.89Z" fill="url(#paint4_linear)"/>
<path opacity="0.6" d="M3498.76 420.721C3486.76 409.181 3474.37 397.921 3462.08 386.621C3376.92 308.551 3445.87 237.781 3385.08 202.341C3344.79 178.861 3263.7 211.631 3265.7 163.291C3270.16 55.8409 3162.34 51.1109 3090.53 92.7209C3053.91 113.931 3041.98 134.551 3002.99 172.401C2943.32 230.301 2877.81 159.171 2779.48 149.681C2686.26 140.681 2628.48 197.861 2644.71 257.831C2670.04 351.521 2804.56 345.921 2820.01 433.641C2847.61 590.471 2915.18 544.951 3032.75 568.441C3134.87 588.861 3148.7 659.041 3218.15 703.771C3271.95 742.861 3330.89 754.401 3397.79 740.101C3569.2 703.551 3610.24 528.081 3498.76 420.721Z" fill="url(#paint5_linear)"/>
</g>
</g>
<defs>
<linearGradient id="paint0_linear" x1="3067" y1="363.8" x2="-0.110076" y2="363.8" gradientUnits="userSpaceOnUse">
<stop stop-color="#A874F5"/>
<stop offset="0.21" stop-color="#6F85FA"/>
<stop offset="0.38" stop-color="#824CF5"/>
<stop offset="0.53" stop-color="#C370F1"/>
<stop offset="0.65" stop-color="#FF92ED"/>
<stop offset="0.75" stop-color="#FFAFFC"/>
<stop offset="0.84" stop-color="#F8A8FA"/>
<stop offset="0.92" stop-color="#DE8AF3"/>
<stop offset="1" stop-color="#A672F7"/>
</linearGradient>
<linearGradient id="paint1_linear" x1="1939.4" y1="387.261" x2="1083.87" y2="505.25" gradientUnits="userSpaceOnUse">
<stop stop-color="#8B63FF"/>
<stop offset="0.19" stop-color="#7784F9"/>
<stop offset="0.6" stop-color="#AA83FF"/>
<stop offset="0.92" stop-color="#E18DFF" stop-opacity="0.2"/>
<stop offset="1" stop-color="#F3A9FF" stop-opacity="0"/>
</linearGradient>
<linearGradient id="paint2_linear" x1="1977.97" y1="502.22" x2="2130.09" y2="252.06" gradientUnits="userSpaceOnUse">
<stop stop-color="#A96FF3"/>
<stop offset="1" stop-color="#B38AF2" stop-opacity="0"/>
</linearGradient>
<linearGradient id="paint3_linear" x1="817.77" y1="305.21" x2="1145.1" y2="647.55" gradientUnits="userSpaceOnUse">
<stop offset="0.29" stop-color="#FF8C8C" stop-opacity="0"/>
<stop offset="1" stop-color="#FFA4DA"/>
</linearGradient>
<linearGradient id="paint4_linear" x1="-35.8501" y1="505.771" x2="170.096" y2="316.421" gradientUnits="userSpaceOnUse">
<stop stop-color="#B97AF4"/>
<stop offset="1" stop-color="#B38AF2" stop-opacity="0"/>
</linearGradient>
<linearGradient id="paint5_linear" x1="3032.25" y1="506.601" x2="3238.2" y2="317.251" gradientUnits="userSpaceOnUse">
<stop stop-color="#B97AF4"/>
<stop offset="1" stop-color="#B38AF2" stop-opacity="0"/>
</linearGradient>
</defs>
</svg>
