<svg width="23" height="19" viewBox="0 0 23 19" fill="none" xmlns="http://www.w3.org/2000/svg">
<path d="M4.70605 6.62311C4.57711 6.62145 4.44921 6.64655 4.33044 6.69681C4.21168 6.74707 4.10464 6.82139 4.01605 6.9151C3.83224 7.10434 3.72937 7.35779 3.72937 7.62161C3.72937 7.88543 3.83224 8.13885 4.01605 8.32809C4.10464 8.42181 4.21168 8.49616 4.33044 8.54642C4.44921 8.59668 4.57711 8.62177 4.70605 8.62012C4.97127 8.62012 5.22561 8.51475 5.41315 8.32721C5.60068 8.13967 5.70605 7.88533 5.70605 7.62012C5.70605 7.3549 5.60068 7.10053 5.41315 6.91299C5.22561 6.72546 4.97127 6.62012 4.70605 6.62012V6.62311Z" fill="#E1E1E9"/>
<path d="M12.254 6.61578C12.1252 6.61396 11.9974 6.639 11.8788 6.68927C11.7602 6.73954 11.6533 6.81394 11.565 6.90778C11.3807 7.09678 11.2776 7.35031 11.2776 7.61429C11.2776 7.87826 11.3807 8.13177 11.565 8.32077C11.6534 8.41451 11.7602 8.48889 11.8788 8.53915C11.9975 8.58942 12.1252 8.61449 12.254 8.61279C12.5192 8.61279 12.7736 8.50742 12.9611 8.31989C13.1487 8.13235 13.254 7.87801 13.254 7.61279C13.254 7.34758 13.1487 7.09321 12.9611 6.90567C12.7736 6.71813 12.5192 6.61279 12.254 6.61279V6.61578Z" fill="#E1E1E9"/>
<path d="M17.289 6.62311C17.1601 6.62157 17.0322 6.64671 16.9135 6.69696C16.7947 6.74721 16.6877 6.82148 16.599 6.9151C16.4154 7.10447 16.3127 7.35787 16.3127 7.62161C16.3127 7.88536 16.4154 8.13873 16.599 8.32809C16.6877 8.42171 16.7947 8.49598 16.9135 8.54623C17.0322 8.59649 17.1601 8.62165 17.289 8.62012C17.5542 8.62012 17.8086 8.51475 17.9961 8.32721C18.1836 8.13967 18.289 7.88533 18.289 7.62012C18.289 7.3549 18.1836 7.10053 17.9961 6.91299C17.8086 6.72546 17.5542 6.62012 17.289 6.62012V6.62311Z" fill="#E1E1E9"/>
<path d="M19.6 0H2.40002C1.76399 0.00158415 1.15446 0.254968 0.704712 0.704712C0.254968 1.15446 0.00158415 1.76399 0 2.40002V12.129C0.00158415 12.765 0.254968 13.3746 0.704712 13.8243C1.15446 14.2741 1.76399 14.5274 2.40002 14.529H9.15503C9.15503 14.529 10.4551 18.09 10.9351 18.09C11.4151 18.09 12.822 14.529 12.822 14.529H19.603C20.2391 14.5274 20.8486 14.2741 21.2983 13.8243C21.7481 13.3746 22.0015 12.765 22.0031 12.129V2.40002C22.0015 1.76347 21.7477 1.15347 21.2973 0.703644C20.8469 0.253814 20.2366 0.000791729 19.6 0ZM6.39404 8.98203C6.04384 9.29965 5.5969 9.49011 5.12524 9.52277C4.65359 9.55542 4.18464 9.42836 3.79401 9.16202H3.77802V9.436H2.48602V3.802H3.77802V5.95502H3.79401C4.18604 5.66318 4.66677 5.51554 5.15503 5.53702C5.39432 5.54617 5.62903 5.60555 5.84387 5.71133C6.05871 5.81712 6.24888 5.96691 6.40204 6.151C6.73242 6.56062 6.90928 7.0728 6.90204 7.599C6.91667 7.85203 6.87914 8.10538 6.79175 8.34329C6.70436 8.58121 6.56899 8.79863 6.39404 8.98203ZM9.16602 9.48203H7.849V5.996C7.87205 5.79288 7.82017 5.58834 7.70306 5.42078C7.58596 5.25321 7.41169 5.13416 7.21301 5.086V3.68201C7.77735 3.74915 8.29444 4.03019 8.65778 4.46719C9.02111 4.9042 9.20302 5.46389 9.16602 6.03101V9.48203ZM14.334 8.414C14.2207 8.67008 14.0559 8.90019 13.85 9.09003C13.6412 9.28547 13.3963 9.4383 13.129 9.54001C12.8541 9.64489 12.5622 9.69813 12.268 9.69702C11.9784 9.69788 11.6911 9.64462 11.421 9.54001C11.1541 9.437 10.9091 9.28432 10.699 9.09003C10.4904 8.89742 10.3221 8.66524 10.204 8.40701C10.0935 8.15672 10.0364 7.88613 10.0364 7.61252C10.0364 7.33891 10.0935 7.06832 10.204 6.81802C10.3224 6.55996 10.4906 6.32783 10.699 6.13501C10.9091 5.94069 11.1541 5.78801 11.421 5.68503C11.6911 5.58062 11.9784 5.5277 12.268 5.52902C12.5622 5.52746 12.8541 5.58035 13.129 5.68503C13.3963 5.78674 13.6412 5.93957 13.85 6.13501C14.056 6.32482 14.2207 6.55491 14.334 6.811C14.4424 7.0638 14.4982 7.33599 14.4982 7.61102C14.4982 7.88606 14.4424 8.15821 14.334 8.41101V8.414ZM19.514 8.974C19.5576 9.33478 19.5241 9.70072 19.4156 10.0476C19.3072 10.3944 19.1264 10.7143 18.885 10.986C18.6221 11.1982 18.3147 11.3482 17.9857 11.4249C17.6567 11.5016 17.3147 11.503 16.985 11.429V10.406C17.1314 10.4274 17.2806 10.4189 17.4235 10.3811C17.5665 10.3432 17.7003 10.2767 17.8168 10.1857C17.9334 10.0947 18.0303 9.98095 18.1016 9.85141C18.173 9.72187 18.2174 9.57918 18.2321 9.43201V9.17001H18.216C18.0639 9.36488 17.8649 9.51799 17.6376 9.61505C17.4102 9.71211 17.162 9.74994 16.916 9.72501C16.6714 9.73285 16.4281 9.68666 16.2034 9.58969C15.9787 9.49272 15.7781 9.34736 15.616 9.164C15.2874 8.74833 15.1214 8.22718 15.149 7.698C15.1173 7.10753 15.3022 6.52579 15.669 6.06201C15.8449 5.86536 16.0623 5.71023 16.3054 5.60785C16.5486 5.50547 16.8114 5.45838 17.075 5.47C17.2824 5.45654 17.4904 5.48573 17.6862 5.55573C17.8819 5.62572 18.0612 5.73506 18.213 5.87701H18.229V5.56802H19.513L19.514 8.974Z" fill="#E1E1E9"/>
</svg>
