<svg width="21" height="20" viewBox="0 0 21 20" fill="none" xmlns="http://www.w3.org/2000/svg">
<path d="M10.7196 4.8705C9.70559 4.8705 8.71433 5.17119 7.8712 5.73456C7.02807 6.29792 6.37093 7.09865 5.98288 8.03548C5.59483 8.97232 5.4933 10.0032 5.69112 10.9977C5.88895 11.9923 6.37725 12.9058 7.09427 13.6228C7.8113 14.3399 8.72484 14.8282 9.71938 15.026C10.7139 15.2238 11.7448 15.1223 12.6816 14.7342C13.6185 14.3462 14.4192 13.689 14.9826 12.8459C15.5459 12.0028 15.8466 11.0115 15.8466 9.9975C15.8478 9.32388 15.716 8.65665 15.4588 8.03408C15.2015 7.41151 14.8239 6.84584 14.3476 6.36952C13.8713 5.8932 13.3056 5.51559 12.683 5.25835C12.0605 5.00112 11.3932 4.86931 10.7196 4.8705ZM10.7196 13.3305C10.0604 13.3305 9.416 13.135 8.8679 12.7688C8.31979 12.4026 7.89259 11.882 7.64032 11.273C7.38805 10.664 7.32205 9.9938 7.45065 9.34726C7.57926 8.70073 7.8967 8.10684 8.36282 7.64071C8.82895 7.17458 9.42284 6.85715 10.0694 6.72854C10.7159 6.59994 11.3861 6.66594 11.9951 6.91821C12.6041 7.17048 13.1247 7.59768 13.4909 8.14578C13.8571 8.69389 14.0526 9.33829 14.0526 9.9975C14.0508 10.8808 13.699 11.7274 13.0743 12.3519C12.4496 12.9764 11.6029 13.3279 10.7196 13.3295V13.3305ZM17.2486 4.6615C17.2486 4.89884 17.1782 5.13085 17.0464 5.32818C16.9145 5.52552 16.7271 5.67933 16.5078 5.77016C16.2886 5.86098 16.0473 5.88474 15.8145 5.83844C15.5817 5.79214 15.3679 5.67785 15.2001 5.51003C15.0323 5.34221 14.918 5.12839 14.8717 4.89561C14.8254 4.66283 14.8491 4.42155 14.94 4.20228C15.0308 3.98301 15.1846 3.79559 15.3819 3.66374C15.5793 3.53188 15.8113 3.4615 16.0486 3.4615C16.2065 3.46057 16.3629 3.49098 16.5089 3.55095C16.6549 3.61093 16.7876 3.69929 16.8992 3.8109C17.0108 3.92252 17.0992 4.05517 17.1592 4.20118C17.2191 4.34719 17.2495 4.50365 17.2486 4.6615ZM20.6486 5.8755C20.6818 4.32088 20.1016 2.8157 19.0336 1.6855C17.9011 0.621118 16.3975 0.0415481 14.8436 0.0705C13.1926 -0.0235 8.24361 -0.0235 6.59361 0.0705C5.0389 0.0382943 3.5334 0.616228 2.39961 1.6805C1.33373 2.81162 0.75389 4.3156 0.784611 5.8695C0.690611 7.5205 0.690611 12.4695 0.784611 14.1195C0.751471 15.6741 1.33163 17.1793 2.39961 18.3095C3.53254 19.3731 5.03588 19.9526 6.58961 19.9245C8.24061 20.0185 13.1896 20.0185 14.8396 19.9245C16.3942 19.9575 17.8994 19.3774 19.0296 18.3095C20.094 17.177 20.6736 15.6734 20.6446 14.1195C20.7386 12.4685 20.7386 7.5245 20.6446 5.8745L20.6486 5.8755ZM18.5116 15.8905C18.3419 16.3205 18.0857 16.711 17.7589 17.0378C17.4321 17.3646 17.0416 17.6208 16.6116 17.7905C15.2956 18.3125 12.1726 18.1905 10.7176 18.1905C9.26261 18.1905 6.13561 18.3065 4.82361 17.7905C4.39366 17.6208 4.00315 17.3646 3.67631 17.0378C3.34947 16.711 3.09328 16.3205 2.92361 15.8905C2.40161 14.5745 2.52361 11.4515 2.52361 9.9965C2.52361 8.5415 2.40761 5.4145 2.92361 4.1025C3.09328 3.67255 3.34947 3.28204 3.67631 2.9552C4.00315 2.62836 4.39366 2.37216 4.82361 2.2025C6.13961 1.6805 9.26261 1.8025 10.7176 1.8025C12.1726 1.8025 15.2996 1.6865 16.6116 2.2025C17.0416 2.37216 17.4321 2.62836 17.7589 2.9552C18.0857 3.28204 18.3419 3.67255 18.5116 4.1025C19.0336 5.4185 18.9116 8.5415 18.9116 9.9965C18.9116 11.4515 19.0336 14.5795 18.5116 15.8905Z" fill="#E1E1E9"/>
</svg>
