<svg width="20" height="17" viewBox="0 0 20 17" fill="none" xmlns="http://www.w3.org/2000/svg">
<path d="M17.944 4.04794C17.957 4.22594 17.957 4.40294 17.957 4.58094C17.9675 6.11543 17.673 7.63671 17.0906 9.05642C16.5082 10.4761 15.6495 11.766 14.5643 12.851C13.4792 13.936 12.1893 14.7946 10.7696 15.3769C9.3498 15.9592 7.82849 16.2536 6.294 16.2429C4.06256 16.2487 1.87697 15.6097 0 14.4029C0.328723 14.4392 0.659288 14.4563 0.99 14.4539C2.8349 14.4587 4.62762 13.8419 6.079 12.7029C5.22354 12.6875 4.39427 12.4052 3.70706 11.8955C3.01985 11.3858 2.50904 10.6741 2.246 9.85994C2.50206 9.90031 2.76079 9.92137 3.02 9.92294C3.38412 9.92177 3.74664 9.87473 4.099 9.78294C3.17096 9.59518 2.3365 9.09201 1.73733 8.35886C1.13816 7.62571 0.811212 6.70778 0.812 5.76094V5.70994C1.38007 6.02685 2.01499 6.20502 2.665 6.22994C1.79569 5.6491 1.18077 4.75845 0.94569 3.73972C0.710613 2.721 0.873101 1.65096 1.4 0.747937C2.42909 2.01487 3.71289 3.05144 5.16822 3.79047C6.62355 4.5295 8.21791 4.95451 9.848 5.03794C9.78273 4.72917 9.74922 4.41453 9.748 4.09894C9.74821 3.2765 9.99577 2.47314 10.4585 1.79322C10.9212 1.1133 11.5777 0.588264 12.3427 0.286317C13.1077 -0.0156304 13.9459 -0.0805278 14.7482 0.100056C15.5506 0.28064 16.2801 0.698357 16.842 1.29894C17.7594 1.12194 18.6392 0.786965 19.442 0.308937C19.1369 1.25588 18.4969 2.05906 17.642 2.56794C18.4555 2.47362 19.2502 2.25824 20 1.92894C19.4387 2.74588 18.7436 3.46227 17.944 4.04794Z" fill="#E1E1E9"/>
</svg>
