<svg width="49" height="49" viewBox="0 0 49 49" fill="none" xmlns="http://www.w3.org/2000/svg">
<path d="M47.9262 8.3237L40.4262 0.823696C39.8987 0.29629 39.1834 0 38.4375 0C37.6916 0 36.9763 0.29629 36.4488 0.823696L13.9488 23.3237C13.4214 23.8511 13.1251 24.5665 13.125 25.3124V32.8124C13.125 33.5583 13.4213 34.2737 13.9488 34.8011C14.4762 35.3285 15.1916 35.6249 15.9375 35.6249H23.4375C24.1834 35.6248 24.8988 35.3285 25.4262 34.801L47.9262 12.301C48.4536 11.7736 48.7499 11.0583 48.7499 10.3124C48.7499 9.56648 48.4536 8.85114 47.9262 8.3237ZM38.4375 6.78971L41.9602 10.3124L39.375 12.8975L35.8523 9.37487L38.4375 6.78971ZM22.2727 29.9999H18.75V26.4772L31.875 13.3522L35.3977 16.8749L22.2727 29.9999ZM46.875 25.4455V44.0624C46.8736 45.3051 46.3793 46.4966 45.5005 47.3754C44.6217 48.2541 43.4303 48.7484 42.1875 48.7499H4.6875C3.44474 48.7484 2.25328 48.2541 1.37451 47.3754C0.495745 46.4966 0.00142672 45.3051 0 44.0624V6.56237C0.00136481 5.31958 0.495663 4.12809 1.37444 3.24931C2.25323 2.37053 3.44472 1.87623 4.6875 1.87487H23.3044C24.0503 1.87487 24.7657 2.17118 25.2931 2.69863C25.8206 3.22608 26.1169 3.94145 26.1169 4.68737C26.1169 5.43329 25.8206 6.14866 25.2931 6.67611C24.7657 7.20355 24.0503 7.49987 23.3044 7.49987H5.625V43.1249H41.25V25.4455C41.25 24.6996 41.5463 23.9842 42.0738 23.4568C42.6012 22.9293 43.3166 22.633 44.0625 22.633C44.8084 22.633 45.5238 22.9293 46.0512 23.4568C46.5787 23.9842 46.875 24.6996 46.875 25.4455Z" fill="#BC7EF9" fill-opacity="0.5"/>
</svg>
