<svg width="106" height="24" viewBox="0 0 106 24" fill="none" xmlns="http://www.w3.org/2000/svg">
<g clip-path="url(#clip0)">
<path d="M13.805 1.04858H8.45654L0 22.917H3.02907L10.4955 3.67139H11.7655L19.2314 22.917H22.2615L13.805 1.04858Z" fill="white"/>
<path d="M16.6462 18.4602H5.61462L3.96338 22.9171H7.01941L7.75498 20.8606H14.5072L15.2422 22.9171H18.2966L16.6462 18.4602Z" fill="white"/>
<path d="M11.1305 4.2019L5.91577 18.2246H16.3452L11.1305 4.2019ZM11.1305 12.3961L12.6348 16.4076H9.62648L11.1305 12.3961Z" fill="white"/>
<path d="M32.1717 14.6885C31.3374 14.8726 30.4856 14.9646 29.6315 14.9629H26.8906V22.9181H29.7986V17.1227L33.1421 22.9171H36.9361L32.1717 14.6885Z" fill="white"/>
<path d="M37.3254 15.7043C37.8942 15.2994 38.401 14.8134 38.8297 14.2615C39.2547 13.6746 39.6029 13.0355 39.8659 12.3598C40.1997 11.4698 40.3585 10.5234 40.3337 9.57274C40.3583 8.313 40.1013 7.06375 39.5814 5.91683C39.0967 4.8783 38.3823 3.96443 37.4926 3.24477C36.5545 2.49969 35.482 1.94321 34.3338 1.60581C33.0483 1.22414 31.7134 1.03628 30.3729 1.0484H22.6848V22.9168H26.0283V3.67149H29.6384C30.6204 3.66298 31.5989 3.7899 32.5464 4.04869C33.3825 4.27347 34.17 4.65132 34.8693 5.16324C35.5491 5.65894 36.0979 6.31387 36.4679 7.07103C36.8379 7.82819 37.0179 8.66463 36.9922 9.50753C36.9922 10.8848 36.6355 12.0051 35.9222 12.8682C35.1614 13.7643 34.1657 14.4287 33.0479 14.7862L37.9779 22.9171H41.5045L37.3254 15.7043Z" fill="white"/>
<path d="M34.3955 13.4802C35.5426 12.5773 36.1164 11.2801 36.1169 9.58858C36.1174 7.89705 35.5436 6.59425 34.3955 5.68021C33.2476 4.76598 31.6598 4.30877 29.6322 4.30859H26.8914V14.8345H29.6322C31.6595 14.8345 33.2473 14.383 34.3955 13.4802ZM29.7994 6.91436H30.1671C30.9278 6.89033 31.6784 7.09315 32.3242 7.4972C32.9144 7.88613 33.2095 8.53761 33.2097 9.45166C33.2099 10.3657 32.9147 11.017 32.3242 11.4056C31.6786 11.81 30.9278 12.0129 30.1671 11.9884H29.7994V6.91436Z" fill="white"/>
<path d="M54.8892 6.46048C53.3183 5.22967 51.1178 4.61426 48.2877 4.61426H46.3148V19.3505H48.2869C51.1165 19.3505 53.317 18.7298 54.8884 17.4883C56.4598 16.2468 57.2454 14.4059 57.245 11.9656C57.2455 9.52634 56.4603 7.6913 54.8892 6.46048ZM53.101 15.4502C52.1869 16.2102 50.8945 16.5901 49.2236 16.59V7.37561C50.8954 7.37561 52.1878 7.7502 53.101 8.49936C54.0142 9.24853 54.4709 10.4043 54.4713 11.9667C54.4714 13.5296 54.0147 14.6908 53.101 15.4502Z" fill="white"/>
<path d="M58.0317 3.80239C56.8069 2.83434 55.3958 2.13105 53.8872 1.73672C52.0605 1.254 50.1769 1.02252 48.2882 1.04861H42.1041V22.917H48.2879C50.1778 22.9437 52.0622 22.7063 53.8869 22.2119C55.395 21.8077 56.8052 21.0993 58.0314 20.13C59.1547 19.2152 60.0386 18.0392 60.6064 16.704C61.7873 13.6567 61.7873 10.2759 60.6064 7.22858C60.0386 5.89339 59.1548 4.71734 58.0317 3.80239ZM55.6589 18.1138C53.9983 19.5678 51.5415 20.2945 48.2885 20.2939H45.4468V3.67142H48.2879C51.5415 3.67142 53.9983 4.39299 55.6584 5.83613C57.3184 7.27927 58.1485 9.32284 58.1487 11.9669C58.1487 14.6114 57.3186 16.6605 55.6584 18.1141L55.6589 18.1138Z" fill="white"/>
<path d="M79.526 6.78169C78.8184 6.10387 77.9908 5.5648 77.0858 5.19226C75.1653 4.42159 73.023 4.42159 71.1026 5.19226C70.1976 5.56471 69.3701 6.1038 68.6627 6.78169C67.9658 7.44891 67.4039 8.24495 67.0079 9.12607C66.6112 10.0319 66.4064 11.0106 66.4064 12.0001C66.4064 12.9896 66.6112 13.9683 67.0079 14.8742C67.4038 15.7553 67.9657 16.5514 68.6627 17.2186C69.3701 17.8964 70.1976 18.4354 71.1026 18.8077C73.023 19.5785 75.1653 19.5785 77.0858 18.8077C77.9908 18.4353 78.8184 17.8963 79.526 17.2186C80.223 16.5514 80.7849 15.7554 81.1807 14.8742C81.5776 13.9684 81.7825 12.9896 81.7825 12.0001C81.7825 11.0106 81.5776 10.0319 81.1807 9.12607C80.7848 8.24493 80.2229 7.44887 79.526 6.78169ZM78.4059 13.7493C78.1669 14.2864 77.8264 14.7718 77.4031 15.1786C76.5091 16.0278 75.325 16.501 74.094 16.501C72.8631 16.501 71.6789 16.0278 70.785 15.1786C70.3615 14.772 70.021 14.2866 69.7824 13.7493C69.5399 13.198 69.4146 12.602 69.4146 11.9993C69.4146 11.3966 69.5399 10.8006 69.7824 10.2493C70.0212 9.71218 70.3617 9.22677 70.785 8.82004C71.6789 7.97088 72.8631 7.49765 74.094 7.49765C75.325 7.49765 76.5091 7.97088 77.4031 8.82004C77.8262 9.22702 78.1667 9.71236 78.4059 10.2493C78.6484 10.8006 78.7736 11.3967 78.7736 11.9993C78.7736 12.602 78.6484 13.198 78.4059 13.7493Z" fill="white"/>
<path d="M82.3606 3.86792C81.2852 2.81663 80.0202 1.98033 78.6332 1.40367C75.7214 0.198776 72.4529 0.198776 69.5411 1.40367C68.1542 1.98013 66.8895 2.81645 65.8145 3.86792C64.7509 4.91528 63.8994 6.15932 63.3069 7.53141C62.7003 8.94252 62.3875 10.4631 62.3875 11.9999C62.3875 13.5367 62.7003 15.0573 63.3069 16.4684C63.8992 17.8406 64.7507 19.0847 65.8145 20.1319C66.8893 21.1836 68.1541 22.02 69.5411 22.5961C72.4529 23.801 75.7214 23.801 78.6332 22.5961C80.0204 22.0198 81.2854 21.1835 82.3606 20.1319C83.4239 19.0843 84.2754 17.8403 84.8682 16.4684C85.4744 15.0572 85.7871 13.5366 85.7871 11.9999C85.7871 10.4632 85.4744 8.94261 84.8682 7.53141C84.2752 6.1596 83.4238 4.91565 82.3606 3.86792ZM81.9761 15.2694C81.5408 16.2728 80.9165 17.1824 80.1375 17.9483C79.3523 18.7186 78.428 19.3319 77.4142 19.7552C75.2831 20.6318 72.8939 20.6318 70.7628 19.7552C69.7488 19.3321 68.8246 18.7189 68.0395 17.9483C67.2601 17.1828 66.6357 16.2731 66.2009 15.2694C65.7599 14.2362 65.5325 13.1239 65.5325 11.9999C65.5325 10.8759 65.7599 9.7636 66.2009 8.73039C66.6358 7.72674 67.2601 6.81707 68.0395 6.05157C68.8248 5.28128 69.749 4.66803 70.7628 4.24458C72.8939 3.36802 75.2831 3.36802 77.4142 4.24458C78.4279 4.66829 79.352 5.2815 80.1375 6.05157C80.9164 6.81746 81.5407 7.72704 81.9761 8.73039C82.4172 9.76358 82.6446 10.8759 82.6446 11.9999C82.6446 13.1239 82.4172 14.2362 81.9761 15.2694Z" fill="white"/>
<path d="M100.619 9.58834C100.619 7.89716 100.045 6.59437 98.8974 5.67996C97.7496 4.76555 96.1619 4.30835 94.1343 4.30835H91.3932V14.8342H94.1343C96.1616 14.8342 97.7493 14.3828 98.8974 13.4799C100.045 12.5771 100.619 11.2799 100.619 9.58834ZM96.8247 11.4053C96.1791 11.8098 95.4283 12.0127 94.6676 11.9882H94.2999V6.91439H94.6676C95.4283 6.89029 96.179 7.09312 96.8247 7.49723C97.415 7.88616 97.7103 8.53764 97.7105 9.45169C97.7106 10.3657 97.4155 11.017 96.825 11.4056L96.8247 11.4053Z" fill="white"/>
<path d="M96.6745 14.6885C95.8403 14.8726 94.9885 14.9646 94.1343 14.9629H91.3932V22.9181H94.3015V17.1227L97.6449 22.9171H101.439L96.6745 14.6885Z" fill="white"/>
<path d="M90.5232 3.67149H94.1336C95.1156 3.66296 96.0941 3.78988 97.0416 4.04869C97.8778 4.27345 98.6654 4.6513 99.3648 5.16324C100.045 5.65903 100.593 6.31399 100.963 7.07113C101.333 7.82827 101.513 8.66467 101.487 9.50753C101.487 10.8848 101.131 12.0051 100.417 12.8682C99.6566 13.7643 98.6609 14.4287 97.5432 14.7862L102.473 22.9171H106L101.821 15.7043C102.39 15.2994 102.896 14.8133 103.325 14.2615C103.75 13.6746 104.098 13.0355 104.361 12.3598C104.695 11.4698 104.854 10.5233 104.829 9.57274C104.854 8.31302 104.597 7.06377 104.077 5.91683C103.592 4.87837 102.878 3.96452 101.988 3.24477C101.05 2.49966 99.9773 1.94318 98.8291 1.60581C97.5436 1.22414 96.2087 1.03628 94.8681 1.0484H87.1814V22.9168H90.5249L90.5232 3.67149Z" fill="white"/>
</g>
<defs>
<clipPath id="clip0">
<rect width="106" height="23" fill="white" transform="translate(0 0.5)"/>
</clipPath>
</defs>
</svg>
