<svg width="48" height="48" viewBox="0 0 48 48" fill="none" xmlns="http://www.w3.org/2000/svg">
<path d="M3 18.3571H15.8946V5.5H3V18.3571ZM7.29821 9.78571H11.5964V14.0714H7.29821V9.78571ZM20.1928 5.5V18.3571H33.0875V5.5H20.1928ZM28.7893 14.0714H24.491V9.78571H28.7893V14.0714ZM3 35.5H15.8946V22.6429H3V35.5ZM7.29821 26.9286H11.5964V31.2143H7.29821V26.9286ZM30.9384 22.6429H33.0875V31.2143H26.6402V29.0714H24.491V35.5H20.1928V22.6429H26.6402V24.7857H30.9384V22.6429ZM30.9384 33.3571H33.0875V35.5H30.9384V33.3571ZM26.6402 33.3571H28.7893V35.5H26.6402V33.3571Z" fill="#A3A4AC"/>
<rect x="23" y="20.5" width="22" height="22" rx="11" fill="white"/>
<path d="M31.4077 35.3885L34.0001 32.7962L36.5924 35.3885L37.8886 34.0923L35.2962 31.5L37.8886 28.9077L36.5924 27.6115L34.0001 30.2038L31.4077 27.6115L30.1116 28.9077L32.7039 31.5L30.1116 34.0923L31.4077 35.3885Z" fill="#E2656D"/>
<path d="M33.9999 40.6666C39.0544 40.6666 43.1666 36.5545 43.1666 31.5C43.1666 26.4455 39.0544 22.3333 33.9999 22.3333C28.9454 22.3333 24.8333 26.4455 24.8333 31.5C24.8333 36.5545 28.9454 40.6666 33.9999 40.6666ZM33.9999 24.1666C38.0433 24.1666 41.3333 27.4566 41.3333 31.5C41.3333 35.5434 38.0433 38.8333 33.9999 38.8333C29.9565 38.8333 26.6666 35.5434 26.6666 31.5C26.6666 27.4566 29.9565 24.1666 33.9999 24.1666Z" fill="#E2656D"/>
</svg>
