<svg width="48" height="48" viewBox="0 0 48 48" fill="none" xmlns="http://www.w3.org/2000/svg">
<path d="M34.4593 10.4638L29.5362 5.54068C29.19 5.19449 28.7204 5 28.2308 5C27.7412 5 27.2717 5.19449 26.9255 5.54068L12.1562 20.31C11.81 20.6562 11.6155 21.1257 11.6154 21.6153V26.5384C11.6154 27.0281 11.8099 27.4976 12.1561 27.8439C12.5024 28.1901 12.9719 28.3846 13.4616 28.3846H18.3847C18.8743 28.3846 19.3438 28.19 19.69 27.8438L34.4593 13.0746C34.8055 12.7283 35 12.2588 35 11.7692C35 11.2796 34.8055 10.81 34.4593 10.4638V10.4638ZM28.2308 9.45685L30.5432 11.7692L28.8462 13.4661L26.5339 11.1538L28.2308 9.45685ZM17.62 24.6923H15.3077V22.38L23.9231 13.7646L26.2354 16.0769L17.62 24.6923ZM33.7693 21.7027V33.9231C33.7684 34.7388 33.4439 35.5209 32.8671 36.0978C32.2902 36.6746 31.5081 36.9991 30.6924 37H6.07693C5.26117 36.9991 4.47908 36.6746 3.90225 36.0978C3.32541 35.5209 3.00094 34.7388 3 33.9231V9.30762C3.0009 8.49184 3.32536 7.70973 3.9022 7.13289C4.47904 6.55605 5.26115 6.23158 6.07693 6.23069H18.2973C18.7869 6.23069 19.2565 6.42519 19.6027 6.77141C19.9489 7.11764 20.1434 7.58721 20.1434 8.07684C20.1434 8.56648 19.9489 9.03605 19.6027 9.38228C19.2565 9.7285 18.7869 9.923 18.2973 9.923H6.69232V33.3077H30.077V21.7027C30.077 21.2131 30.2715 20.7435 30.6177 20.3973C30.9639 20.0511 31.4335 19.8566 31.9232 19.8566C32.4128 19.8566 32.8824 20.0511 33.2286 20.3973C33.5748 20.7435 33.7693 21.2131 33.7693 21.7027V21.7027Z" fill="#A3A4AC"/>
<rect x="23" y="21" width="22" height="22" rx="11" fill="white"/>
<path d="M31.4077 35.8885L34.0001 33.2962L36.5924 35.8885L37.8886 34.5923L35.2962 32L37.8886 29.4077L36.5924 28.1115L34.0001 30.7038L31.4077 28.1115L30.1116 29.4077L32.7039 32L30.1116 34.5923L31.4077 35.8885Z" fill="#E2656D"/>
<path d="M33.9999 41.1666C39.0544 41.1666 43.1666 37.0545 43.1666 32C43.1666 26.9455 39.0544 22.8333 33.9999 22.8333C28.9454 22.8333 24.8333 26.9455 24.8333 32C24.8333 37.0545 28.9454 41.1666 33.9999 41.1666ZM33.9999 24.6666C38.0433 24.6666 41.3333 27.9566 41.3333 32C41.3333 36.0434 38.0433 39.3333 33.9999 39.3333C29.9565 39.3333 26.6666 36.0434 26.6666 32C26.6666 27.9566 29.9565 24.6666 33.9999 24.6666Z" fill="#E2656D"/>
</svg>
