<svg width="48" height="48" viewBox="0 0 48 48" fill="none" xmlns="http://www.w3.org/2000/svg">
<path d="M13.4062 22.75H10.5937C10.1297 22.75 9.75 22.3703 9.75 21.9062V19.0937C9.75 18.6297 10.1297 18.25 10.5937 18.25H13.4062C13.8703 18.25 14.25 18.6297 14.25 19.0937V21.9062C14.25 22.3703 13.8703 22.75 13.4062 22.75ZM21 21.9062V19.0937C21 18.6297 20.6203 18.25 20.1562 18.25H17.3437C16.8797 18.25 16.5 18.6297 16.5 19.0937V21.9062C16.5 22.3703 16.8797 22.75 17.3437 22.75H20.1562C20.6203 22.75 21 22.3703 21 21.9062ZM27.75 21.9062V19.0937C27.75 18.6297 27.3703 18.25 26.9062 18.25H24.0937C23.6297 18.25 23.25 18.6297 23.25 19.0937V21.9062C23.25 22.3703 23.6297 22.75 24.0937 22.75H26.9062C27.3703 22.75 27.75 22.3703 27.75 21.9062ZM21 28.6562V25.8437C21 25.3797 20.6203 25 20.1562 25H17.3437C16.8797 25 16.5 25.3797 16.5 25.8437V28.6562C16.5 29.1203 16.8797 29.5 17.3437 29.5H20.1562C20.6203 29.5 21 29.1203 21 28.6562ZM14.25 28.6562V25.8437C14.25 25.3797 13.8703 25 13.4062 25H10.5937C10.1297 25 9.75 25.3797 9.75 25.8437V28.6562C9.75 29.1203 10.1297 29.5 10.5937 29.5H13.4062C13.8703 29.5 14.25 29.1203 14.25 28.6562ZM27.75 28.6562V25.8437C27.75 25.3797 27.3703 25 26.9062 25H24.0937C23.6297 25 23.25 25.3797 23.25 25.8437V28.6562C23.25 29.1203 23.6297 29.5 24.0937 29.5H26.9062C27.3703 29.5 27.75 29.1203 27.75 28.6562ZM34.5 10.375V35.125C34.5 36.9883 32.9883 38.5 31.125 38.5H6.375C4.51172 38.5 3 36.9883 3 35.125V10.375C3 8.51172 4.51172 7 6.375 7H9.75V3.34375C9.75 2.87969 10.1297 2.5 10.5937 2.5H13.4062C13.8703 2.5 14.25 2.87969 14.25 3.34375V7H23.25V3.34375C23.25 2.87969 23.6297 2.5 24.0937 2.5H26.9062C27.3703 2.5 27.75 2.87969 27.75 3.34375V7H31.125C32.9883 7 34.5 8.51172 34.5 10.375ZM31.125 34.7031V13.75H6.375V34.7031C6.375 34.9352 6.56484 35.125 6.79687 35.125H30.7031C30.9352 35.125 31.125 34.9352 31.125 34.7031Z" fill="#A3A4AC"/>
<rect x="23" y="23.5" width="22" height="22" rx="11" fill="white"/>
<path d="M31.4077 38.3885L34.0001 35.7962L36.5924 38.3885L37.8886 37.0923L35.2962 34.5L37.8886 31.9077L36.5924 30.6115L34.0001 33.2038L31.4077 30.6115L30.1116 31.9077L32.7039 34.5L30.1116 37.0923L31.4077 38.3885Z" fill="#E2656D"/>
<path d="M33.9999 43.6666C39.0544 43.6666 43.1666 39.5545 43.1666 34.5C43.1666 29.4455 39.0544 25.3333 33.9999 25.3333C28.9454 25.3333 24.8333 29.4455 24.8333 34.5C24.8333 39.5545 28.9454 43.6666 33.9999 43.6666ZM33.9999 27.1666C38.0433 27.1666 41.3333 30.4566 41.3333 34.5C41.3333 38.5434 38.0433 41.8333 33.9999 41.8333C29.9565 41.8333 26.6666 38.5434 26.6666 34.5C26.6666 30.4566 29.9565 27.1666 33.9999 27.1666Z" fill="#E2656D"/>
</svg>
