<svg width="48" height="48" viewBox="0 0 48 48" fill="none" xmlns="http://www.w3.org/2000/svg">
<path d="M31.5 7.5H16.5C14.8455 7.5 13.5 8.8455 13.5 10.5V19.5H10.5C8.8455 19.5 7.5 20.8455 7.5 22.5V36C7.5 36.3978 7.65804 36.7794 7.93934 37.0607C8.22064 37.342 8.60218 37.5 9 37.5H33C33.3978 37.5 33.7794 37.342 34.0607 37.0607C34.342 36.7794 34.5 36.3978 34.5 36V10.5C34.5 8.8455 33.1545 7.5 31.5 7.5ZM10.5 22.5H19.5V34.5H10.5V22.5ZM31.5 34.5H22.5V22.5C22.5 20.8455 21.1545 19.5 19.5 19.5H16.5V10.5H31.5V34.5Z" fill="#A3A4AC"/>
<path d="M19.5 13.5H22.5V16.5H19.5V13.5ZM25.5 13.5H28.5V16.5H25.5V13.5ZM25.5 19.5465H28.5V22.5H25.5V19.5465ZM25.5 25.5H28.5V28.5H25.5V25.5ZM13.5 25.5015H16.5V28.5015H13.5V25.5015Z" fill="#A3A4AC"/>
<rect x="23" y="21.5" width="22" height="22" rx="11" fill="white"/>
<path d="M31.4077 36.3885L34.0001 33.7962L36.5924 36.3885L37.8886 35.0923L35.2962 32.5L37.8886 29.9077L36.5924 28.6115L34.0001 31.2038L31.4077 28.6115L30.1116 29.9077L32.7039 32.5L30.1116 35.0923L31.4077 36.3885Z" fill="#E2656D"/>
<path d="M33.9999 41.6666C39.0544 41.6666 43.1666 37.5545 43.1666 32.5C43.1666 27.4455 39.0544 23.3333 33.9999 23.3333C28.9454 23.3333 24.8333 27.4455 24.8333 32.5C24.8333 37.5545 28.9454 41.6666 33.9999 41.6666ZM33.9999 25.1666C38.0433 25.1666 41.3333 28.4566 41.3333 32.5C41.3333 36.5434 38.0433 39.8333 33.9999 39.8333C29.9565 39.8333 26.6666 36.5434 26.6666 32.5C26.6666 28.4566 29.9565 25.1666 33.9999 25.1666Z" fill="#E2656D"/>
</svg>
