<svg width="44" height="44" viewBox="0 0 44 44" fill="none" xmlns="http://www.w3.org/2000/svg">
<path d="M0 18.75H18.8047V0H0V18.75ZM6.26822 6.25H12.5364V12.5H6.26822V6.25ZM25.0729 0V18.75H43.8776V0H25.0729ZM37.6093 12.5H31.3411V6.25H37.6093V12.5ZM0 43.75H18.8047V25H0V43.75ZM6.26822 31.25H12.5364V37.5H6.26822V31.25ZM40.7434 25H43.8776V37.5H34.4752V34.375H31.3411V43.75H25.0729V25H34.4752V28.125H40.7434V25ZM40.7434 40.625H43.8776V43.75H40.7434V40.625ZM34.4752 40.625H37.6093V43.75H34.4752V40.625Z" fill="#FD8FDF" fill-opacity="0.5"/>
</svg>
