<svg width="110" height="110" viewBox="0 0 110 110" fill="none" xmlns="http://www.w3.org/2000/svg">
<path d="M55 0C85.3759 0 110 24.6253 110 55.0028C110 85.3747 85.3759 110 55 110C24.6241 110 0 85.3747 0 55.0028C0 24.6253 24.6241 0 55 0ZM55 8.24876C48.8182 8.18171 42.6845 9.34145 36.9538 11.6608C31.2232 13.9802 26.0094 17.4132 21.6143 21.7612C17.2192 26.1091 13.73 31.2855 11.3487 36.991C8.96745 42.6964 7.74132 48.8175 7.74132 55C7.74132 61.1825 8.96745 67.3036 11.3487 73.009C13.73 78.7145 17.2192 83.8909 21.6143 88.2388C26.0094 92.5868 31.2232 96.0198 36.9538 98.3392C42.6845 100.659 48.8182 101.818 55 101.751C67.2737 101.563 78.9809 96.5549 87.5939 87.8083C96.2069 79.0617 101.035 67.2785 101.035 55.0028C101.035 42.727 96.2069 30.9438 87.5939 22.1972C78.9809 13.4506 67.2737 8.44254 55 8.25426V8.24876ZM55 63.235C63.9687 63.235 72.3765 66.837 78.5408 73.1115C79.2635 73.9 79.6517 74.9383 79.6234 76.0075C79.5951 77.0768 79.1526 78.0932 78.3893 78.8423C77.6259 79.5914 76.6014 80.0147 75.5319 80.0228C74.4624 80.0309 73.4316 79.6232 72.657 78.8857C70.3553 76.5381 67.6076 74.6745 64.5754 73.4043C61.5431 72.1341 58.2875 71.483 55 71.4893C51.7051 71.4844 48.4427 72.1397 45.4053 73.4167C42.3679 74.6937 39.6172 76.5664 37.3155 78.9242C36.9364 79.3112 36.4848 79.6199 35.9864 79.8324C35.488 80.0449 34.9527 80.1572 34.4109 80.1628C33.8691 80.1684 33.3316 80.0673 32.8289 79.8651C32.3262 79.663 31.8683 79.3638 31.4812 78.9846C31.0941 78.6055 30.7855 78.1539 30.573 77.6554C30.3605 77.1571 30.2482 76.6217 30.2426 76.0799C30.237 75.5381 30.3382 75.0005 30.5403 74.4978C30.7424 73.9951 31.0416 73.5371 31.4207 73.15C34.4908 70.0082 38.1588 67.5128 42.2084 65.8109C46.258 64.109 50.6073 63.235 55 63.2405V63.235ZM38.5033 37.1304C39.4219 37.1044 40.3365 37.2629 41.1928 37.5966C42.0491 37.9302 42.8299 38.4321 43.4889 39.0728C44.1478 39.7134 44.6716 40.4797 45.0293 41.3263C45.387 42.1729 45.5713 43.0826 45.5713 44.0017C45.5713 44.9207 45.387 45.8304 45.0293 46.677C44.6716 47.5236 44.1478 48.2899 43.4889 48.9305C42.8299 49.5712 42.0491 50.0731 41.1928 50.4067C40.3365 50.7404 39.4219 50.8989 38.5033 50.8729C36.6803 50.8729 34.932 50.1487 33.6429 48.8595C32.3539 47.5704 31.6297 45.822 31.6297 43.9989C31.6297 42.1758 32.3539 40.4274 33.6429 39.1383C34.932 37.8492 36.6803 37.1249 38.5033 37.1249V37.1304ZM71.4967 37.1304C72.4153 37.1044 73.3299 37.2629 74.1862 37.5966C75.0425 37.9302 75.8233 38.4321 76.4823 39.0728C77.1412 39.7134 77.665 40.4797 78.0227 41.3263C78.3804 42.1729 78.5647 43.0826 78.5647 44.0017C78.5647 44.9207 78.3804 45.8304 78.0227 46.677C77.665 47.5236 77.1412 48.2899 76.4823 48.9305C75.8233 49.5712 75.0425 50.0731 74.1862 50.4067C73.3299 50.7404 72.4153 50.8989 71.4967 50.8729C69.7081 50.8223 68.0097 50.0761 66.7625 48.7931C65.5152 47.51 64.8175 45.7911 64.8175 44.0017C64.8175 42.2122 65.5152 40.4933 66.7625 39.2102C68.0097 37.9272 69.7081 37.181 71.4967 37.1304Z" fill="#BBAAFF"/>
</svg>
