<svg width="60" height="60" viewBox="0 0 60 60" fill="none" xmlns="http://www.w3.org/2000/svg">
<path d="M48.3334 2.5C43.2708 2.5 39.1667 6.60405 39.1667 11.6666L4.79174 11.6666C3.52599 11.6666 2.5 12.6927 2.5 13.9584L2.5 55.2084C2.5 56.474 3.52599 57.5 4.79163 57.5L48.3333 57.5C53.3959 57.5 57.5 53.3959 57.5 48.3334L57.5 11.6666C57.5 6.60405 53.3959 2.5 48.3334 2.5ZM48.3334 52.9166L7.08337 52.9166L7.08337 16.25L39.1667 16.25L39.1667 48.3334C39.1667 49.599 40.1927 50.625 41.4584 50.625C42.724 50.625 43.75 49.599 43.75 48.3334C43.75 45.8021 45.8021 43.75 48.3334 43.75C50.8647 43.75 52.9167 45.8021 52.9167 48.3334C52.9167 50.8647 50.8647 52.9166 48.3334 52.9166ZM52.9166 40.3125C50.0805 38.6751 46.5862 38.6751 43.75 40.3125L43.75 11.6666C43.75 9.13534 45.8021 7.08326 48.3334 7.08326C50.8647 7.08326 52.9167 9.13523 52.9167 11.6666L52.9167 40.3125L52.9166 40.3125Z" fill="white"/>
<path d="M11.6666 23.125L11.6666 39.1666C11.6666 44.2292 15.7706 48.3333 20.8332 48.3333L36.8749 48.3333L36.8749 43.75L32.2916 43.75L32.2916 32.2916L27.7082 32.2916L27.7082 43.75L20.8332 43.75C18.302 43.75 16.2499 41.698 16.2499 39.1666L16.2499 36.875L20.8333 36.875L20.8333 32.2916L16.2499 32.2916L16.2499 25.4166L36.8749 25.4166L36.8749 20.8333L13.9583 20.8333C12.6927 20.8334 11.6666 21.8594 11.6666 23.125Z" fill="white"/>
</svg>
