<svg width="44" height="44" viewBox="0 0 44 44" fill="none" xmlns="http://www.w3.org/2000/svg">
<path d="M0.0612793 18.875H18.8659V0.125H0.0612793V18.875ZM6.3295 6.375H12.5977V12.625H6.3295V6.375ZM25.1342 0.125V18.875H43.9388V0.125H25.1342ZM37.6706 12.625H31.4024V6.375H37.6706V12.625ZM0.0612793 43.875H18.8659V25.125H0.0612793V43.875ZM6.3295 31.375H12.5977V37.625H6.3295V31.375ZM40.8047 25.125H43.9388V37.625H34.5365V34.5H31.4024V43.875H25.1342V25.125H34.5365V28.25H40.8047V25.125ZM40.8047 40.75H43.9388V43.875H40.8047V40.75ZM34.5365 40.75H37.6706V43.875H34.5365V40.75Z" fill="white"/>
</svg>
