<svg width="50" height="50" viewBox="0 0 50 50" fill="none" xmlns="http://www.w3.org/2000/svg">
<path d="M48.5512 8.94876L41.0512 1.44876C40.5238 0.921351 39.8084 0.625061 39.0626 0.625061C38.3167 0.625061 37.6013 0.921351 37.0739 1.44876L14.5739 23.9488C14.0465 24.4762 13.7501 25.1915 13.7501 25.9374V33.4374C13.7501 34.1833 14.0464 34.8987 14.5738 35.4262C15.1013 35.9536 15.8166 36.2499 16.5626 36.2499H24.0626C24.8085 36.2499 25.5238 35.9536 26.0512 35.4261L48.5512 12.9261C49.0786 12.3987 49.3749 11.6833 49.3749 10.9374C49.3749 10.1915 49.0786 9.4762 48.5512 8.94876ZM39.0626 7.41477L42.5852 10.9374L40.0001 13.5226L36.4774 9.99993L39.0626 7.41477ZM22.8977 30.6249H19.3751V27.1023L32.5001 13.9773L36.0227 17.4999L22.8977 30.6249ZM47.5001 26.0706V44.6874C47.4986 45.9302 47.0043 47.1216 46.1255 48.0004C45.2468 48.8792 44.0553 49.3735 42.8126 49.3749H5.31256C4.0698 49.3735 2.87834 48.8792 1.99957 48.0004C1.12081 47.1216 0.626488 45.9302 0.625061 44.6874V7.18743C0.626426 5.94465 1.12072 4.75315 1.99951 3.87437C2.87829 2.99559 4.06978 2.50129 5.31256 2.49993H23.9294C24.6754 2.49993 25.3907 2.79625 25.9182 3.32369C26.4456 3.85114 26.7419 4.56651 26.7419 5.31243C26.7419 6.05835 26.4456 6.77372 25.9182 7.30117C25.3907 7.82861 24.6754 8.12493 23.9294 8.12493H6.25006V43.7499H41.8751V26.0706C41.8751 25.3246 42.1714 24.6093 42.6988 24.0818C43.2263 23.5544 43.9416 23.2581 44.6876 23.2581C45.4335 23.2581 46.1488 23.5544 46.6763 24.0818C47.2037 24.6093 47.5001 25.3246 47.5001 26.0706Z" fill="white"/>
</svg>
